<?xml version="1.0" encoding="UTF-8"?>
<svg id="Capa_2" data-name="Capa 2" xmlns="http://www.w3.org/2000/svg" viewBox="0 0 223.08 204.01">
  <defs>
    <style>
      .cls-1 {
        fill: #098337;
        fill-rule: evenodd;
      }

      .cls-2 {
        fill: #806535;
      }
    </style>
  </defs>
  <g id="Capa_1-2" data-name="Capa 1">
    <g>
      <g>
        <path d="m11.31,183.39c0,.32-.1.48-.3.48h-2.35c-.2,0-.71-.73-1.54-2.18-.7-1.23-1.17-2.11-1.4-2.66-.23-.52-.37-.82-.4-.88-.21-.34-.44-.52-.72-.54-.08,0-.31,0-.68,0-.86,0-1.29.11-1.29.32,0,.63.02,1.56.07,2.81.04,1.25.07,2.18.07,2.8,0,.22-.08.34-.26.34-.13,0-.32,0-.58-.03-.26-.02-.45-.03-.58-.03-.12,0-.3.01-.55.03s-.42.03-.55.03c-.17,0-.25-.08-.25-.24,0-.75.04-1.88.11-3.38.07-1.5.11-2.63.11-3.38,0-.79-.04-1.98-.11-3.56-.07-1.58-.11-2.77-.11-3.56,0-.15.08-.23.25-.23.12,0,.31.01.56.03s.44.03.57.03c.12,0,.31,0,.55-.03s.43-.03.55-.03c.16,0,.24.06.24.18,0,.58-.02,1.45-.06,2.62-.04,1.17-.06,2.04-.06,2.63,0,.27.02.43.05.5.05.12.19.18.42.18,1.32,0,2.29-.25,2.9-.74.52-.44,1.02-1.24,1.49-2.4.34-.91.68-1.83,1.02-2.74.05-.12.15-.19.32-.24.11-.03.47-.04,1.08-.04.75,0,1.12.11,1.12.32,0,.12-.16.67-.47,1.66-.37,1.14-.84,2.15-1.43,3.03-.39.59-.9,1.19-1.54,1.79-.16.14-.25.27-.25.39,0,.12.28.73.83,1.83.48.95.91,1.71,1.3,2.28.43.52,1.03,1.33,1.8,2.42.03.06.05.13.05.19Z"/>
        <path d="m22.39,174.63s0,.09-.03.18c-.27,1.56-.4,2.91-.4,4.04,0,.07.08,1.6.25,4.59v.14c.02.2-.07.3-.26.3s-.47.02-.85.07c-.38.04-.66.07-.84.07-.13,0-.23-.24-.3-.72-.07-.48-.13-.71-.19-.71-.04,0-.23.13-.55.4-.4.33-.78.58-1.12.75-.54.27-1.08.41-1.62.41-1.32,0-2.44-.53-3.34-1.58-.86-1.01-1.29-2.18-1.29-3.53,0-1.51.43-2.76,1.3-3.75.91-1.03,2.1-1.54,3.58-1.54,1.04,0,1.95.36,2.73,1.08.12.14.3.33.54.59.02.02.04.03.06.03.04,0,.1-.21.17-.64.07-.43.17-.64.29-.64.18,0,.53.05,1.03.15.56.12.84.23.84.33Zm-2.61,4.27c0-.84-.25-1.56-.75-2.16-.52-.65-1.2-.97-2.01-.97s-1.5.32-2.04.96c-.53.61-.79,1.34-.79,2.17s.26,1.54.79,2.15c.54.63,1.23.95,2.04.95s1.46-.32,2-.97c.5-.61.76-1.32.76-2.13Z"/>
        <path d="m29.91,174.28c0,.75-.05,1.43-.15,2.04-.02.16-.09.24-.2.24-.14,0-.36-.02-.65-.05-.29-.03-.51-.05-.66-.05-.86,0-1.41.24-1.65.73-.14.29-.21.9-.21,1.83v1.12c0,.38.01.96.05,1.74.03.78.05,1.36.05,1.74,0,.18-.08.28-.24.28-.21,0-.53,0-.96-.01-.43,0-.75,0-.96,0-.16,0-.23-.08-.23-.26,0-.55,0-1.38.03-2.49.02-1.11.03-1.95.03-2.5,0-1.68-.16-3.04-.47-4.06-.01-.05-.02-.1-.02-.12,0-.08.04-.14.13-.17.25-.03.61-.07,1.06-.12.74-.14,1.08-.21,1.02-.21.11,0,.18.2.21.6.03.4.09.6.18.6.01,0,.03,0,.05-.02.28-.18.56-.35.84-.53.31-.18.62-.32.94-.41.27-.08.61-.12,1.02-.12.53,0,.8.07.8.21Z"/>
        <path d="m40.97,174.63s0,.09-.03.18c-.27,1.56-.4,2.91-.4,4.04,0,.07.08,1.6.25,4.59v.14c.02.2-.07.3-.26.3s-.47.02-.85.07c-.38.04-.66.07-.84.07-.13,0-.23-.24-.3-.72-.07-.48-.13-.71-.19-.71-.04,0-.23.13-.55.4-.4.33-.78.58-1.12.75-.54.27-1.08.41-1.62.41-1.32,0-2.44-.53-3.34-1.58-.86-1.01-1.29-2.18-1.29-3.53,0-1.51.43-2.76,1.3-3.75.91-1.03,2.1-1.54,3.58-1.54,1.04,0,1.95.36,2.73,1.08.12.14.3.33.54.59.02.02.04.03.06.03.04,0,.1-.21.17-.64.07-.43.17-.64.29-.64.18,0,.53.05,1.03.15.56.12.84.23.84.33Zm-2.61,4.27c0-.84-.25-1.56-.75-2.16-.52-.65-1.2-.97-2.01-.97s-1.5.32-2.04.96c-.53.61-.79,1.34-.79,2.17s.26,1.54.79,2.15c.54.63,1.23.95,2.04.95s1.46-.32,2-.97c.5-.61.76-1.32.76-2.13Z"/>
        <path d="m58.17,183.5c0,.27-.08.4-.24.4-.1,0-.26-.01-.46-.03-.21-.02-.37-.03-.48-.03-.12,0-.29,0-.52.02s-.41.02-.52.02c-.14,0-.21-.16-.21-.48s.01-.78.04-1.41c.02-.62.04-1.09.04-1.41,0-1.72,0-2.68-.02-2.88-.05-.7-.2-1.19-.43-1.45-.27-.29-.74-.43-1.42-.43-.43,0-.91.21-1.45.61-.56.43-.85.85-.87,1.27-.03.53-.04,1.5-.04,2.91,0,.33.01.83.04,1.5s.04,1.17.04,1.5c0,.18-.06.28-.18.28s-.3-.01-.54-.03c-.24-.02-.41-.03-.54-.03-.11,0-.27,0-.48.02s-.37.02-.48.02c-.14,0-.2-.1-.2-.3,0-.33,0-.82.03-1.48.02-.66.03-1.15.03-1.48v-2.46c0-.77-.09-1.32-.28-1.65-.26-.46-.75-.7-1.48-.7-.43,0-.94.18-1.53.54-.65.4-.98.79-.98,1.2v2.98c0,.34,0,.85,0,1.52,0,.67.01,1.18.01,1.51,0,.2-.08.3-.24.3h-1.9c-.14,0-.2-.09-.2-.28,0-.55,0-1.38,0-2.49s.01-1.94.01-2.49c0-1.25-.13-2.49-.4-3.73-.02-.09-.03-.16-.03-.21,0-.09.03-.14.09-.15.25-.03.62-.08,1.1-.15.22-.07.56-.14,1.01-.22h.08c.08-.01.16.23.23.71s.13.72.19.72l.51-.45c.4-.35.8-.62,1.21-.83.58-.3,1.16-.45,1.74-.45,1.57,0,2.57.64,2.99,1.92.42-.54.95-1,1.57-1.35.67-.38,1.33-.57,1.98-.57,1.26,0,2.13.37,2.62,1.1.35.54.52,1.41.52,2.59,0,.22,0,.57-.02,1.04-.01.47-.02.82-.02,1.04,0,.43,0,1.08.03,1.94.02.86.03,1.51.03,1.94Z"/>
        <path d="m70.13,174.63s0,.09-.03.18c-.27,1.56-.4,2.91-.4,4.04,0,.07.08,1.6.25,4.59v.14c.02.2-.07.3-.26.3s-.47.02-.85.07c-.38.04-.66.07-.84.07-.13,0-.23-.24-.3-.72-.07-.48-.13-.71-.19-.71-.04,0-.23.13-.55.4-.4.33-.78.58-1.12.75-.54.27-1.08.41-1.62.41-1.32,0-2.44-.53-3.34-1.58-.86-1.01-1.29-2.18-1.29-3.53,0-1.51.43-2.76,1.3-3.75.91-1.03,2.1-1.54,3.58-1.54,1.04,0,1.95.36,2.73,1.08.12.14.3.33.54.59.02.02.04.03.06.03.04,0,.1-.21.17-.64.07-.43.17-.64.29-.64.18,0,.53.05,1.03.15.56.12.84.23.84.33Zm-2.61,4.27c0-.84-.25-1.56-.75-2.16-.52-.65-1.2-.97-2.01-.97s-1.5.32-2.04.96c-.53.61-.79,1.34-.79,2.17s.26,1.54.79,2.15c.54.63,1.23.95,2.04.95s1.46-.32,2-.97c.5-.61.76-1.32.76-2.13Z"/>
        <path d="m80.8,174.35c0,.82,0,2.05-.02,3.68-.01,1.64-.02,2.87-.02,3.69,0,1.62-.35,2.82-1.04,3.59-.73.82-1.89,1.23-3.5,1.23s-2.8-.29-3.75-.88c-.15-.1-.22-.18-.22-.25,0,.08.1-.43.31-1.51.02-.12.07-.17.14-.17.03,0,.08.02.13.05,1.02.59,2.05.88,3.08.88.67,0,1.23-.15,1.68-.45.51-.34.77-.83.77-1.48,0-.14-.01-.46-.04-.96-.76.92-1.72,1.38-2.88,1.38-1.26,0-2.3-.45-3.11-1.36-.78-.87-1.17-1.95-1.17-3.22s.38-2.39,1.12-3.3c.8-.97,1.83-1.45,3.11-1.45,1.12,0,2.02.43,2.68,1.3.11.14.19.21.23.21.05,0,.08-.06.08-.18,0-.09,0-.23-.02-.42s-.02-.34-.02-.43c0-.41.04-.61.12-.61.07,0,.44.06,1.1.19.67.13,1.03.2,1.09.23.1.03.14.12.14.27Zm-2.45,4.21c0-.76-.21-1.41-.62-1.94-.46-.58-1.06-.87-1.8-.87s-1.33.29-1.79.88c-.42.53-.62,1.18-.62,1.93s.21,1.38.63,1.92c.46.59,1.05.88,1.78.88s1.32-.29,1.78-.88c.43-.54.64-1.18.64-1.92Z"/>
        <path d="m92.15,174.6c0,.5-.02,1.25-.06,2.25s-.06,1.76-.06,2.26.02,1.24.05,2.23c.03.99.05,1.74.05,2.23,0,.14-.06.22-.19.27-.05.01-.75.02-2.07.02-.08,0-.13-.26-.15-.77-.02-.51-.06-.77-.12-.77-.03,0-.09.03-.15.09-1.14.99-2.26,1.48-3.37,1.48-1.51,0-2.5-.54-2.99-1.64-.3-.67-.45-1.89-.45-3.64,0-1.58.13-2.92.38-4.02.06-.27.17-.4.34-.4.2,0,.49,0,.89,0s.69,0,.89,0c.14,0,.2.08.2.23,0,.27-.04.71-.13,1.33-.1.66-.15,1.13-.15,1.4-.02.41-.03.86-.03,1.35,0,1.19.08,1.99.25,2.4.29.74.94,1.1,1.95,1.1.43,0,.94-.21,1.52-.63.62-.44.94-.87.96-1.28.03-.51.05-2.31.05-5.4,0-.33.14-.5.42-.5h1.69c.2,0,.3.12.3.36Z"/>
        <path d="m104.17,174.63s0,.09-.03.18c-.27,1.56-.4,2.91-.4,4.04,0,.07.08,1.6.25,4.59v.14c.02.2-.07.3-.26.3s-.47.02-.85.07c-.38.04-.66.07-.84.07-.13,0-.23-.24-.3-.72-.07-.48-.13-.71-.19-.71-.04,0-.23.13-.55.4-.4.33-.78.58-1.12.75-.54.27-1.08.41-1.62.41-1.32,0-2.44-.53-3.34-1.58-.86-1.01-1.29-2.18-1.29-3.53,0-1.51.43-2.76,1.3-3.75.91-1.03,2.1-1.54,3.58-1.54,1.04,0,1.95.36,2.73,1.08.12.14.3.33.54.59.02.02.04.03.06.03.04,0,.1-.21.17-.64.07-.43.17-.64.29-.64.18,0,.53.05,1.03.15.56.12.84.23.84.33Zm-2.61,4.27c0-.84-.25-1.56-.75-2.16-.52-.65-1.2-.97-2.01-.97s-1.5.32-2.04.96c-.53.61-.79,1.34-.79,2.17s.26,1.54.79,2.15c.54.63,1.23.95,2.04.95s1.46-.32,2-.97c.5-.61.76-1.32.76-2.13Z"/>
      </g>
      <g>
        <path d="m122.46,174.83c0,1.6-.43,2.88-1.3,3.84-.89.99-2.13,1.48-3.71,1.48-.39,0-.98-.02-1.76-.05s-1.38-.05-1.77-.05c-.22,0-.33.14-.33.42,0,.36.02.9.07,1.62.04.72.07,1.26.07,1.62,0,.12-.06.17-.19.17-.14,0-.36-.01-.65-.05-.29-.03-.51-.05-.65-.05-.12,0-.3.01-.54.03-.24.02-.42.03-.53.03-.17,0-.26-.11-.26-.32,0-.74.03-1.86.1-3.36.06-1.5.1-2.62.1-3.37,0-2.13-.08-4.41-.23-6.85v-.15c-.02-.15.07-.22.25-.22.37,0,.92,0,1.66.01s1.3,0,1.67,0c.32,0,.8-.01,1.44-.04s1.12-.04,1.44-.04c1.51,0,2.74.51,3.71,1.53.95,1,1.42,2.26,1.42,3.76Zm-2.58.15c0-1.02-.28-1.84-.83-2.45-.57-.64-1.36-.96-2.37-.96-.31,0-.87.03-1.68.08-.92.05-1.39.11-1.42.16-.05.08-.07,1.25-.07,3.52,0,.29,0,.72.03,1.29s.03,1,.03,1.29c0,.06.08.11.22.14.38.08,1.41.11,3.12.11.95,0,1.7-.3,2.23-.89.5-.57.75-1.33.75-2.29Z"/>
        <path d="m133.86,174.63s0,.09-.03.18c-.27,1.56-.4,2.91-.4,4.04,0,.07.08,1.6.25,4.59v.14c.02.2-.07.3-.26.3s-.47.02-.85.07c-.38.04-.66.07-.84.07-.13,0-.23-.24-.3-.72-.07-.48-.13-.71-.19-.71-.04,0-.23.13-.55.4-.4.33-.78.58-1.12.75-.54.27-1.08.41-1.62.41-1.32,0-2.44-.53-3.34-1.58-.86-1.01-1.29-2.18-1.29-3.53,0-1.51.43-2.76,1.3-3.75.91-1.03,2.1-1.54,3.58-1.54,1.04,0,1.95.36,2.73,1.08.12.14.3.33.54.59.02.02.04.03.06.03.04,0,.1-.21.17-.64.07-.43.17-.64.29-.64.18,0,.53.05,1.03.15.56.12.84.23.84.33Zm-2.61,4.27c0-.84-.25-1.56-.75-2.16-.52-.65-1.2-.97-2.01-.97s-1.5.32-2.04.96c-.53.61-.79,1.34-.79,2.17s.26,1.54.79,2.15c.54.63,1.23.95,2.04.95s1.46-.32,2-.97c.5-.61.76-1.32.76-2.13Z"/>
        <path d="m142.66,174.6c0,.15-.08.48-.23,1-.16.52-.27.78-.33.78-.31-.14-.62-.27-.93-.41-.31-.14-.65-.2-1.02-.2-.84,0-1.54.31-2.1.93-.56.62-.84,1.35-.84,2.2s.28,1.55.84,2.16c.57.63,1.27.94,2.1.94.46,0,.91-.11,1.35-.34.44-.23.64-.34.58-.34.09,0,.19.29.3.86.1.52.15.88.15,1.07,0,.21-.4.42-1.2.62-.67.17-1.16.26-1.48.26-1.4,0-2.59-.53-3.56-1.57-.95-1.02-1.42-2.24-1.42-3.66s.46-2.67,1.39-3.68c.95-1.04,2.14-1.55,3.57-1.55.95,0,1.83.24,2.62.73.14.08.2.15.2.21Z"/>
        <path d="m152.86,183.52c0,.25-.07.38-.21.38-.21,0-.53,0-.96-.01-.43,0-.75,0-.96,0-.17,0-.25-.11-.25-.34,0-.33.01-.82.04-1.48.02-.66.04-1.16.04-1.49,0-.31-.01-.79-.04-1.43-.02-.64-.04-1.12-.04-1.44,0-1.23-.58-1.84-1.74-1.84-.37,0-.87.19-1.47.56-.65.4-.97.77-.97,1.1v6.07c0,.2-.07.3-.21.3-.21,0-.53,0-.95-.01-.42,0-.74,0-.95,0-.16,0-.23-.09-.23-.28v-4.94c0-.8-.04-2.51-.13-5.13-.01-.81-.07-2.01-.17-3.6-.01-.08-.02-.14-.02-.16,0-.12.04-.19.12-.21.12-.04.5-.06,1.16-.06.14,0,.36-.03.64-.08s.49-.08.62-.08c.09,0,.13.06.13.19,0,.64-.03,1.6-.08,2.89-.05,1.29-.08,2.25-.08,2.89,0,.16.03.24.08.25.35-.29.8-.65,1.35-1.06.67-.42,1.37-.62,2.12-.62,1.28,0,2.16.38,2.65,1.14.35.56.52,1.45.52,2.66,0,.21,0,.54-.01.98-.01.44-.02.77-.02.98,0,.44,0,1.09.02,1.95s.02,1.51.02,1.94Z"/>
        <path d="m164.76,174.63s0,.09-.03.18c-.27,1.56-.4,2.91-.4,4.04,0,.07.08,1.6.25,4.59v.14c.02.2-.07.3-.26.3s-.47.02-.85.07c-.38.04-.66.07-.84.07-.13,0-.23-.24-.3-.72-.07-.48-.13-.71-.19-.71-.04,0-.23.13-.55.4-.4.33-.78.58-1.12.75-.54.27-1.08.41-1.62.41-1.32,0-2.44-.53-3.34-1.58-.86-1.01-1.29-2.18-1.29-3.53,0-1.51.43-2.76,1.3-3.75.91-1.03,2.1-1.54,3.58-1.54,1.04,0,1.95.36,2.73,1.08.12.14.3.33.54.59.02.02.04.03.06.03.04,0,.1-.21.17-.64.07-.43.17-.64.29-.64.18,0,.53.05,1.03.15.56.12.84.23.84.33Zm-2.61,4.27c0-.84-.25-1.56-.75-2.16-.52-.65-1.2-.97-2.01-.97s-1.5.32-2.04.96c-.53.61-.79,1.34-.79,2.17s.26,1.54.79,2.15c.54.63,1.23.95,2.04.95s1.46-.32,2-.97c.5-.61.76-1.32.76-2.13Z"/>
        <path d="m181.96,183.5c0,.27-.08.4-.24.4-.1,0-.26-.01-.46-.03-.21-.02-.37-.03-.48-.03-.12,0-.29,0-.52.02s-.41.02-.52.02c-.14,0-.21-.16-.21-.48s.01-.78.04-1.41c.02-.62.04-1.09.04-1.41,0-1.72,0-2.68-.02-2.88-.05-.7-.2-1.19-.43-1.45-.27-.29-.74-.43-1.42-.43-.43,0-.91.21-1.45.61-.56.43-.85.85-.87,1.27-.03.53-.04,1.5-.04,2.91,0,.33.01.83.04,1.5s.04,1.17.04,1.5c0,.18-.06.28-.18.28s-.3-.01-.54-.03c-.24-.02-.41-.03-.54-.03-.11,0-.27,0-.48.02s-.37.02-.48.02c-.14,0-.2-.1-.2-.3,0-.33,0-.82.03-1.48.02-.66.03-1.15.03-1.48v-2.46c0-.77-.09-1.32-.28-1.65-.26-.46-.75-.7-1.48-.7-.43,0-.94.18-1.53.54-.65.4-.98.79-.98,1.2v2.98c0,.34,0,.85,0,1.52,0,.67.01,1.18.01,1.51,0,.2-.08.3-.24.3h-1.9c-.14,0-.2-.09-.2-.28,0-.55,0-1.38,0-2.49s.01-1.94.01-2.49c0-1.25-.13-2.49-.4-3.73-.02-.09-.03-.16-.03-.21,0-.09.03-.14.09-.15.25-.03.62-.08,1.1-.15.22-.07.56-.14,1.01-.22h.08c.08-.01.16.23.23.71s.13.72.19.72l.51-.45c.4-.35.8-.62,1.21-.83.58-.3,1.16-.45,1.74-.45,1.57,0,2.57.64,2.99,1.92.42-.54.95-1,1.57-1.35.67-.38,1.33-.57,1.98-.57,1.26,0,2.13.37,2.62,1.1.35.54.52,1.41.52,2.59,0,.22,0,.57-.02,1.04-.01.47-.02.82-.02,1.04,0,.43,0,1.08.03,1.94.02.86.03,1.51.03,1.94Z"/>
        <path d="m193.92,174.63s0,.09-.03.18c-.27,1.56-.4,2.91-.4,4.04,0,.07.08,1.6.25,4.59v.14c.02.2-.07.3-.26.3s-.47.02-.85.07c-.38.04-.66.07-.84.07-.13,0-.23-.24-.3-.72-.07-.48-.13-.71-.19-.71-.04,0-.23.13-.55.4-.4.33-.78.58-1.12.75-.54.27-1.08.41-1.62.41-1.32,0-2.44-.53-3.34-1.58-.86-1.01-1.29-2.18-1.29-3.53,0-1.51.43-2.76,1.3-3.75.91-1.03,2.1-1.54,3.58-1.54,1.04,0,1.95.36,2.73,1.08.12.14.3.33.54.59.02.02.04.03.06.03.04,0,.1-.21.17-.64.07-.43.17-.64.29-.64.18,0,.53.05,1.03.15.56.12.84.23.84.33Zm-2.61,4.27c0-.84-.25-1.56-.75-2.16-.52-.65-1.2-.97-2.01-.97s-1.5.32-2.04.96c-.53.61-.79,1.34-.79,2.17s.26,1.54.79,2.15c.54.63,1.23.95,2.04.95s1.46-.32,2-.97c.5-.61.76-1.32.76-2.13Z"/>
        <path d="m211.12,183.5c0,.27-.08.4-.24.4-.1,0-.26-.01-.46-.03-.21-.02-.37-.03-.48-.03-.12,0-.29,0-.52.02s-.41.02-.52.02c-.14,0-.21-.16-.21-.48s.01-.78.04-1.41c.02-.62.04-1.09.04-1.41,0-1.72,0-2.68-.02-2.88-.05-.7-.2-1.19-.43-1.45-.27-.29-.74-.43-1.42-.43-.43,0-.91.21-1.45.61-.56.43-.85.85-.87,1.27-.03.53-.04,1.5-.04,2.91,0,.33.01.83.04,1.5s.04,1.17.04,1.5c0,.18-.06.28-.18.28s-.3-.01-.54-.03c-.24-.02-.41-.03-.54-.03-.11,0-.27,0-.48.02s-.37.02-.48.02c-.14,0-.2-.1-.2-.3,0-.33,0-.82.03-1.48.02-.66.03-1.15.03-1.48v-2.46c0-.77-.09-1.32-.28-1.65-.26-.46-.75-.7-1.48-.7-.43,0-.94.18-1.53.54-.65.4-.98.79-.98,1.2v2.98c0,.34,0,.85,0,1.52,0,.67.01,1.18.01,1.51,0,.2-.08.3-.24.3h-1.9c-.14,0-.2-.09-.2-.28,0-.55,0-1.38,0-2.49s.01-1.94.01-2.49c0-1.25-.13-2.49-.4-3.73-.02-.09-.03-.16-.03-.21,0-.09.03-.14.09-.15.25-.03.62-.08,1.1-.15.22-.07.56-.14,1.01-.22h.08c.08-.01.16.23.23.71s.13.72.19.72l.51-.45c.4-.35.8-.62,1.21-.83.58-.3,1.16-.45,1.74-.45,1.57,0,2.57.64,2.99,1.92.42-.54.95-1,1.57-1.35.67-.38,1.33-.57,1.98-.57,1.26,0,2.13.37,2.62,1.1.35.54.52,1.41.52,2.59,0,.22,0,.57-.02,1.04-.01.47-.02.82-.02,1.04,0,.43,0,1.08.03,1.94.02.86.03,1.51.03,1.94Z"/>
        <path d="m223.08,174.63s0,.09-.03.18c-.27,1.56-.4,2.91-.4,4.04,0,.07.08,1.6.25,4.59v.14c.02.2-.07.3-.26.3s-.47.02-.85.07c-.38.04-.66.07-.84.07-.13,0-.23-.24-.3-.72-.07-.48-.13-.71-.19-.71-.04,0-.23.13-.55.4-.4.33-.78.58-1.12.75-.54.27-1.08.41-1.62.41-1.32,0-2.44-.53-3.34-1.58-.86-1.01-1.29-2.18-1.29-3.53,0-1.51.43-2.76,1.3-3.75.91-1.03,2.1-1.54,3.58-1.54,1.04,0,1.95.36,2.73,1.08.12.14.3.33.54.59.02.02.04.03.06.03.04,0,.1-.21.17-.64.07-.43.17-.64.29-.64.18,0,.53.05,1.03.15.56.12.84.23.84.33Zm-2.61,4.27c0-.84-.25-1.56-.75-2.16-.52-.65-1.2-.97-2.01-.97s-1.5.32-2.04.96c-.53.61-.79,1.34-.79,2.17s.26,1.54.79,2.15c.54.63,1.23.95,2.04.95s1.46-.32,2-.97c.5-.61.76-1.32.76-2.13Z"/>
      </g>
      <g>
        <path d="m43.16,193.61c-.07,0-.13-.08-.2-.24-.41-.9-.95-1.6-1.62-2.08-.67-.49-1.39-.73-2.15-.73-.62,0-1.23.19-1.81.57-.58.38-1.06.96-1.43,1.75-.37.79-.56,1.62-.56,2.51,0,1.27.38,2.37,1.14,3.29.76.92,1.71,1.39,2.85,1.39.4,0,.75-.06,1.03-.19.29-.12.55-.31.81-.54.25-.24.41-.41.46-.52.05-.12.08-.42.08-.91,0-.82-.11-1.36-.33-1.62s-.57-.39-1.05-.39h-.23c-.14,0-.22-.04-.22-.13,0-.12.08-.17.24-.17h.4s1.69,0,1.69,0l2.08-.04c.12,0,.17.05.17.16s-.07.16-.2.17c-.31.03-.56.1-.76.2-.2.11-.32.23-.36.36s-.07.36-.07.68c0,1.17-.03,1.81-.08,1.93-.06.12-.52.38-1.39.79-.87.41-1.75.61-2.64.61-1.46,0-2.72-.47-3.75-1.41s-1.56-2.13-1.56-3.57c0-.99.25-1.89.74-2.69.49-.8,1.17-1.42,2.02-1.87s1.72-.66,2.61-.66c.83,0,1.72.24,2.68.71.27.13.46.2.57.2.16,0,.28-.07.36-.2.07-.12.14-.17.2-.17.12,0,.18.15.2.43.03.46.1,1.15.22,2.08,0,.05.01.09.01.13,0,.12-.05.18-.16.18Z"/>
        <path d="m47.48,195.54c.31-.56.65-.98,1.01-1.26.36-.28.73-.42,1.13-.42.27,0,.51.1.71.3.2.2.3.42.3.67,0,.47-.2.71-.61.71-.19,0-.35-.13-.48-.4-.16-.33-.37-.5-.64-.5-.25,0-.51.14-.77.42-.26.28-.44.59-.53.92s-.13,1.03-.13,2.09c0,.97.04,1.53.12,1.67.08.14.28.23.61.27.09.01.13.04.13.11,0,.1-.12.16-.35.16h-2.39c-.17,0-.25-.04-.25-.13,0-.08.11-.12.34-.14.32-.02.51-.12.58-.29.08-.18.11-.82.11-1.94,0-1.64-.03-2.62-.1-2.95-.07-.33-.32-.5-.75-.53-.18,0-.27-.06-.27-.14,0-.04.02-.08.06-.1.04-.02.27-.05.69-.07l1.38-.08c.04.27.07.81.11,1.62Z"/>
        <path d="m53.46,193.98c.03.32.05,1.26.07,2.82.01.97.04,1.62.08,1.94s.17.59.38.8c.21.21.46.31.73.31.36,0,.72-.17,1.08-.5s.59-.69.67-1.08c.08-.38.13-1.26.13-2.63,0-.64-.04-1.03-.12-1.16s-.28-.21-.58-.23c-.12,0-.17-.05-.17-.13,0-.05.02-.09.05-.11.04-.02.15-.03.34-.03h1.5c.04.54.07,1.15.07,1.83l-.06,2.82c0,.58.05.95.15,1.09.1.15.25.24.46.25.13.02.2.07.2.15,0,.09-.13.14-.38.14h-1.18c-.21,0-.31-.07-.31-.2,0-.04,0-.08,0-.13.01-.15.02-.3.02-.46,0-.13,0-.32-.02-.57-.38.49-.78.86-1.18,1.1-.41.25-.84.37-1.28.37-.38,0-.7-.09-.96-.28-.26-.18-.43-.41-.51-.67-.08-.26-.14-.92-.17-1.96-.03-1.04-.04-1.86-.04-2.46,0-.32-.02-.53-.05-.61-.03-.08-.14-.12-.33-.13-.2-.02-.3-.07-.3-.15s.12-.13.36-.13h1.38Z"/>
        <path d="m61.39,193.86c.03.22.04.41.04.58,0,.15-.01.37-.04.65.5-.47.87-.77,1.14-.91.26-.14.56-.21.88-.21.77,0,1.42.32,1.97.95.54.63.81,1.38.81,2.23,0,.92-.31,1.68-.93,2.27-.62.59-1.34.88-2.17.88-.57,0-1.14-.17-1.7-.5-.08.62-.13,1.29-.13,2.03,0,.43.02.77.05,1.01l.02.29c.1.31.35.51.76.59.14.03.21.09.22.17l-.02.07-.05.03c-.62-.04-1.1-.05-1.45-.05-.89,0-1.42,0-1.6.02-.12,0-.17-.04-.17-.13,0-.08.05-.12.15-.13.46-.05.76-.16.87-.32.12-.16.19-.87.23-2.12.03-1.26.05-2.04.05-2.36l-.02-2.04v-1.21c0-.63-.04-1.03-.12-1.21-.08-.17-.3-.27-.65-.3-.12,0-.17-.05-.17-.13,0-.04.02-.08.06-.1.04-.03.27-.04.68-.05l1.29-.02Zm-.06,3.34c0,.91.02,1.5.07,1.75s.21.49.48.71c.28.22.64.33,1.09.33.61,0,1.1-.26,1.47-.78s.55-1.16.55-1.92c0-.86-.19-1.55-.57-2.07-.38-.52-.84-.78-1.38-.78s-.95.22-1.25.66c-.31.44-.46,1.13-.46,2.08Z"/>
        <path d="m67.16,197.14c0-.88.32-1.65.95-2.32s1.41-1,2.34-1c.87,0,1.62.3,2.25.9.63.6.94,1.35.94,2.25s-.33,1.71-.99,2.39c-.66.69-1.43,1.03-2.31,1.03s-1.62-.32-2.24-.95c-.62-.63-.94-1.4-.94-2.29Zm1.21-.04c0,.86.2,1.57.6,2.14.4.57.89.85,1.47.85.54,0,1.01-.27,1.41-.8.41-.53.61-1.24.61-2.13,0-.79-.2-1.49-.59-2.11-.39-.62-.9-.92-1.53-.92-.58,0-1.05.28-1.42.84s-.55,1.27-.55,2.12Z"/>
        <path d="m86.56,190.55c.15.56.29,1.34.43,2.35-.02.04-.05.06-.08.06-.03,0-.07-.02-.11-.06-.34-.55-.67-.98-.99-1.27-.31-.29-.63-.5-.95-.62-.32-.12-.86-.18-1.64-.18-.73,0-1.31.04-1.73.13-.04.05-.06.14-.06.28,0,.04,0,.1-.02.19-.05.4-.07,1.48-.07,3.25,0,.08,0,.18.01.31.38.01.64.02.78.02.63,0,1.09-.09,1.37-.28.28-.19.53-.59.74-1.22.04-.11.08-.16.15-.16.09,0,.14.07.14.22l-.03.3c-.04.4-.06.8-.06,1.22,0,.68.01,1.29.04,1.84,0,.17-.05.25-.14.25-.07,0-.11-.06-.14-.18-.11-.59-.33-1.01-.66-1.27s-1.07-.39-2.19-.39c-.01.37-.02.96-.02,1.77,0,1.05.04,1.72.11,2.01.08.28.25.51.54.68.29.17.77.25,1.45.25,1.95,0,3.2-.67,3.77-2.01.07-.16.14-.25.21-.25.08,0,.12.05.12.17,0,.06-.01.12-.04.2-.03.09-.1.45-.22,1.06-.03.13-.12.52-.29,1.17h-3.14c-.45,0-1.11-.03-1.98-.06-.87-.04-1.64-.06-2.32-.06-.67,0-1.02-.02-1.05-.04-.03-.03-.04-.05-.04-.08,0-.1.08-.15.25-.15.55,0,.92-.15,1.09-.44.17-.29.26-1.01.26-2.15v-1.54s.01-1.44.01-1.44c0-.29-.02-.84-.05-1.64-.03-.81-.06-1.27-.09-1.38-.03-.11-.1-.23-.23-.34-.13-.11-.41-.23-.84-.34-.13-.03-.2-.09-.2-.16,0-.09.09-.14.26-.14l1.53.08c.54.03,1.87.04,3.98.04,1.39,0,2.1,0,2.13,0Z"/>
        <path d="m90.64,193.83c.06.19.09.37.09.53,0,.24-.01.48-.02.72.37-.42.74-.73,1.12-.93s.76-.31,1.15-.31c.36,0,.68.08.99.25.3.17.58.43.83.77.35-.35.71-.61,1.08-.78.36-.17.73-.26,1.09-.26.48,0,.89.1,1.21.3s.52.42.6.67.12.69.12,1.33l-.04,2.83c0,.41.04.69.12.84.08.15.25.22.51.22.17,0,.25.04.25.13,0,.09-.14.14-.41.14h-2.3c-.22,0-.34-.04-.34-.13,0-.08.07-.12.2-.13.41-.02.67-.11.76-.28.1-.17.15-1.07.15-2.7,0-.76-.03-1.32-.09-1.65-.06-.34-.19-.61-.41-.83s-.48-.32-.79-.32c-.27,0-.54.08-.8.25-.26.17-.51.42-.76.76-.2.66-.3,1.81-.3,3.46,0,.58.05.95.14,1.1.09.15.3.23.61.23h.13c.16,0,.24.04.24.13,0,.09-.1.13-.3.13h-2.53c-.25,0-.38-.05-.38-.14s.07-.14.22-.14c.3,0,.51-.06.62-.19.11-.13.18-.49.22-1.1.04-.6.06-1.2.06-1.79,0-1.06-.1-1.76-.31-2.1-.21-.33-.51-.5-.9-.5-.34,0-.68.13-1.01.41-.33.27-.56.63-.67,1.09-.12.46-.17,1.27-.17,2.43,0,.82.04,1.32.12,1.5s.28.27.59.27c.12,0,.2,0,.23.02.03.02.04.06.04.12,0,.08-.1.12-.29.12h-2.32c-.28,0-.41-.05-.41-.14,0-.08.05-.13.15-.13.27,0,.45-.06.55-.15s.17-.37.21-.82.07-1.19.07-2.22,0-1.64-.02-1.86-.09-.39-.22-.52c-.13-.13-.36-.2-.69-.2-.13,0-.19-.05-.19-.13,0-.05.02-.09.05-.11.04-.02.26-.05.68-.1.42-.04.79-.06,1.11-.06.08,0,.21,0,.38,0Z"/>
        <path d="m102.49,193.86c.03.22.04.41.04.58,0,.15-.01.37-.04.65.5-.47.87-.77,1.14-.91.26-.14.56-.21.88-.21.77,0,1.42.32,1.97.95.54.63.81,1.38.81,2.23,0,.92-.31,1.68-.93,2.27-.62.59-1.34.88-2.17.88-.57,0-1.14-.17-1.7-.5-.08.62-.13,1.29-.13,2.03,0,.43.02.77.05,1.01l.02.29c.1.31.35.51.76.59.14.03.21.09.22.17l-.02.07-.05.03c-.62-.04-1.1-.05-1.45-.05-.89,0-1.42,0-1.6.02-.12,0-.17-.04-.17-.13,0-.08.05-.12.15-.13.46-.05.76-.16.87-.32.12-.16.19-.87.23-2.12.03-1.26.05-2.04.05-2.36l-.02-2.04v-1.21c0-.63-.04-1.03-.12-1.21-.08-.17-.3-.27-.65-.3-.12,0-.17-.05-.17-.13,0-.04.02-.08.06-.1.04-.03.27-.04.68-.05l1.29-.02Zm-.06,3.34c0,.91.02,1.5.07,1.75s.21.49.48.71c.28.22.64.33,1.09.33.61,0,1.1-.26,1.47-.78s.55-1.16.55-1.92c0-.86-.19-1.55-.57-2.07-.38-.52-.84-.78-1.38-.78s-.95.22-1.25.66c-.31.44-.46,1.13-.46,2.08Z"/>
        <path d="m110.37,195.54c.31-.56.65-.98,1.01-1.26.36-.28.73-.42,1.13-.42.27,0,.51.1.71.3.2.2.3.42.3.67,0,.47-.2.71-.61.71-.19,0-.35-.13-.48-.4-.16-.33-.37-.5-.64-.5-.25,0-.51.14-.77.42-.26.28-.44.59-.53.92s-.13,1.03-.13,2.09c0,.97.04,1.53.12,1.67.08.14.28.23.61.27.09.01.13.04.13.11,0,.1-.12.16-.35.16h-2.39c-.17,0-.25-.04-.25-.13,0-.08.11-.12.34-.14.32-.02.51-.12.58-.29.08-.18.11-.82.11-1.94,0-1.64-.03-2.62-.1-2.95-.07-.33-.32-.5-.75-.53-.18,0-.27-.06-.27-.14,0-.04.02-.08.06-.1.04-.02.27-.05.69-.07l1.38-.08c.04.27.07.81.11,1.62Z"/>
        <path d="m115.58,196.77c-.02.25-.03.46-.03.61,0,.71.21,1.31.63,1.8.42.49.94.74,1.55.74s1.16-.24,1.67-.72c.15-.13.25-.2.29-.2.08,0,.12.07.13.2-.19.35-.51.64-.97.88-.46.24-.97.36-1.54.36-.83,0-1.53-.3-2.11-.9-.58-.6-.86-1.35-.86-2.27,0-.98.32-1.8.95-2.45.63-.65,1.31-.98,2.03-.98.67,0,1.28.26,1.83.77.54.51.82,1.11.82,1.8,0,.11-.02.18-.05.23-.03.05-.22.08-.57.08l-3.75.06Zm0-.39c.65.03,1.28.04,1.89.04l.4-.02c.3,0,.53-.07.69-.18s.24-.3.24-.57c0-.42-.14-.79-.43-1.1-.29-.31-.63-.47-1.02-.47-.36,0-.72.18-1.08.54-.36.36-.59.94-.69,1.75Z"/>
        <path d="m125.72,198.29c0,.58-.21,1.08-.64,1.49-.43.42-.94.62-1.53.62-.35,0-.77-.11-1.25-.34-.26-.12-.42-.18-.47-.18-.08,0-.16.05-.22.16-.08.14-.16.21-.23.21-.06,0-.1-.07-.11-.21-.02-.14-.03-.47-.03-.97,0-.43-.01-.71-.02-.84,0-.18.05-.28.15-.28.06,0,.1.05.13.14.19.57.47,1.05.82,1.45.35.4.76.6,1.24.6.33,0,.63-.1.89-.31s.39-.49.39-.84c0-.55-.48-1.04-1.43-1.46-.65-.29-1.09-.51-1.31-.64-.22-.13-.39-.32-.52-.55-.12-.23-.19-.48-.19-.75,0-.52.2-.95.59-1.29s.86-.52,1.42-.52c.41,0,.86.13,1.35.38.08.04.15.06.21.06.05,0,.11-.04.17-.12.06-.08.1-.12.14-.12.04,0,.08.02.1.06.02.04.05.26.08.66.03.4.04.74.04,1,0,.16-.04.24-.13.24-.08,0-.13-.07-.18-.22-.04-.13-.16-.39-.36-.77-.2-.38-.42-.62-.66-.72s-.47-.16-.7-.16c-.36,0-.65.09-.88.26-.23.17-.35.4-.35.68,0,.17.05.33.14.47s.18.24.27.31c.08.07.56.3,1.43.69.54.24.89.43,1.06.56.17.13.31.31.43.54.12.22.17.46.17.7Z"/>
        <path d="m130.82,199.31c-.25.35-.54.62-.88.8s-.72.27-1.15.27c-.5,0-.9-.13-1.19-.4-.29-.27-.43-.62-.43-1.07,0-.33.09-.64.26-.92s.37-.49.59-.61c.22-.12.61-.28,1.17-.47.8-.27,1.28-.49,1.44-.66s.24-.4.24-.68c0-.45-.11-.79-.32-1.04-.21-.25-.51-.37-.89-.37-.31,0-.55.07-.71.21-.16.15-.28.43-.37.85-.09.46-.29.69-.59.69-.11,0-.23-.06-.36-.17-.13-.11-.2-.27-.2-.49,0-.38.21-.7.62-.98s.98-.42,1.71-.42c.57,0,1.03.08,1.38.24.34.16.56.35.64.56.09.21.13.62.13,1.22l-.04,1.98c0,.77.05,1.31.14,1.63.09.32.26.48.51.48.05,0,.12,0,.21-.02h.13c.12-.01.17.03.17.11,0,.19-.49.29-1.48.29-.28,0-.48-.07-.57-.2-.1-.13-.15-.41-.16-.83Zm0-2.92c-.15.2-.49.43-1.02.71-.52.27-.9.53-1.13.77-.23.25-.34.55-.34.9,0,.31.09.58.28.8s.42.33.7.33.56-.09.82-.27c.25-.18.44-.4.57-.68.12-.28.18-.68.18-1.22,0-.41-.02-.85-.05-1.35Z"/>
        <path d="m135.81,195.54c.31-.56.65-.98,1.01-1.26.36-.28.73-.42,1.13-.42.27,0,.51.1.71.3.2.2.3.42.3.67,0,.47-.2.71-.61.71-.19,0-.35-.13-.48-.4-.16-.33-.37-.5-.64-.5-.25,0-.51.14-.77.42-.26.28-.44.59-.53.92s-.13,1.03-.13,2.09c0,.97.04,1.53.12,1.67.08.14.28.23.61.27.09.01.13.04.13.11,0,.1-.12.16-.35.16h-2.39c-.17,0-.25-.04-.25-.13,0-.08.11-.12.34-.14.32-.02.51-.12.58-.29.08-.18.11-.82.11-1.94,0-1.64-.03-2.62-.1-2.95-.07-.33-.32-.5-.75-.53-.18,0-.27-.06-.27-.14,0-.04.02-.08.06-.1.04-.02.27-.05.69-.07l1.38-.08c.04.27.07.81.11,1.62Z"/>
        <path d="m141.88,193.83v1.69s0,1.57,0,1.57v2.08c0,.36.05.59.17.69.12.1.29.15.53.16.27.01.41.07.41.17,0,.08-.05.12-.16.12-.04,0-.08,0-.13,0-.46-.06-.9-.09-1.3-.09-.64,0-1.08.02-1.33.06-.05,0-.1.01-.15.01-.12,0-.18-.04-.18-.13s.14-.15.42-.19c.28-.04.46-.1.53-.18.08-.09.12-.34.12-.75l.05-3.1c0-.83-.06-1.32-.19-1.47s-.37-.23-.73-.24c-.12,0-.18-.04-.18-.12,0-.04.02-.08.06-.1.04-.03.34-.06.89-.1s.94-.06,1.15-.07Zm-.83-3.67c.19,0,.36.07.51.21.15.14.23.29.23.46,0,.19-.06.36-.18.5-.12.14-.29.21-.51.21-.19,0-.36-.06-.51-.18-.15-.12-.23-.29-.23-.5s.06-.37.19-.5c.13-.13.29-.2.5-.2Z"/>
        <path d="m147.61,199.31c-.25.35-.54.62-.88.8s-.72.27-1.15.27c-.5,0-.9-.13-1.19-.4-.29-.27-.43-.62-.43-1.07,0-.33.09-.64.26-.92s.37-.49.59-.61c.22-.12.61-.28,1.17-.47.8-.27,1.28-.49,1.44-.66s.24-.4.24-.68c0-.45-.11-.79-.32-1.04-.21-.25-.51-.37-.89-.37-.31,0-.55.07-.71.21-.16.15-.28.43-.37.85-.09.46-.29.69-.59.69-.11,0-.23-.06-.36-.17-.13-.11-.2-.27-.2-.49,0-.38.21-.7.62-.98s.98-.42,1.71-.42c.57,0,1.03.08,1.38.24.34.16.56.35.64.56.09.21.13.62.13,1.22l-.04,1.98c0,.77.05,1.31.14,1.63.09.32.26.48.51.48.05,0,.12,0,.21-.02h.13c.12-.01.17.03.17.11,0,.19-.49.29-1.48.29-.28,0-.48-.07-.57-.2-.1-.13-.15-.41-.16-.83Zm0-2.92c-.15.2-.49.43-1.02.71-.52.27-.9.53-1.13.77-.23.25-.34.55-.34.9,0,.31.09.58.28.8s.42.33.7.33.56-.09.82-.27c.25-.18.44-.4.57-.68.12-.28.18-.68.18-1.22,0-.41-.02-.85-.05-1.35Z"/>
        <path d="m152.65,190c.01.63.03,1.26.04,1.89v4.67s.02,2.26.02,2.26c0,.43.06.74.18.93.12.19.39.3.79.34.16.01.24.06.24.14,0,.08-.07.13-.2.13-.03,0-.08,0-.13,0-.51-.05-1.13-.08-1.84-.08-.43,0-.79.02-1.05.07-.05,0-.1,0-.15,0-.15,0-.23-.05-.23-.14s.07-.13.2-.14c.45,0,.75-.14.9-.39.14-.26.21-.69.21-1.29l-.02-4.27c0-1.37-.02-2.2-.06-2.46-.03-.27-.14-.49-.31-.67-.18-.18-.42-.29-.74-.34-.19-.03-.29-.08-.29-.16,0-.08.08-.13.24-.14.91-.06,1.6-.17,2.06-.33h.13Z"/>
        <path d="m164.08,190.99c.13-.13.22-.28.27-.42.04-.12.1-.18.17-.18.04,0,.08.02.13.07.04.18.08.54.15,1.09l.18,1.41c0,.09-.06.14-.17.14-.06,0-.11-.05-.16-.15-.27-.65-.66-1.2-1.18-1.63-.52-.43-1.09-.64-1.7-.64s-1.06.18-1.37.55c-.31.37-.46.75-.46,1.16,0,.5.17.88.5,1.15s1.02.56,2.07.9c.77.24,1.35.47,1.73.7.38.22.7.54.96.94.26.41.39.84.39,1.3,0,.79-.33,1.5-.98,2.12-.65.62-1.46.94-2.41.94-.85,0-1.71-.27-2.58-.8-.17.14-.28.3-.33.49-.04.16-.1.24-.19.24-.08,0-.14-.1-.17-.31-.04-.2-.11-1.17-.22-2.91.02-.06.07-.09.16-.09.08,0,.13.06.18.17.77,1.93,1.84,2.9,3.22,2.9.68,0,1.22-.21,1.61-.62.39-.41.58-.89.58-1.42,0-.37-.1-.71-.31-1.02-.21-.31-.48-.56-.82-.75-.34-.19-.88-.4-1.62-.64-.95-.3-1.59-.59-1.94-.87-.34-.27-.59-.58-.75-.92-.16-.34-.24-.67-.24-.99,0-.66.3-1.25.9-1.77s1.34-.77,2.21-.77c.33,0,.68.05,1.04.16.36.1.74.26,1.14.48Z"/>
        <path d="m171.05,190.26h.35c.56,1.14,1.33,3.1,2.31,5.87.63,1.77,1.07,2.86,1.3,3.26s.61.63,1.13.67c.17.01.25.07.25.17,0,.07-.04.1-.13.1h-.11c-.46-.05-1.04-.07-1.75-.07-1.09,0-1.79.02-2.1.05-.16,0-.23-.04-.23-.13,0-.07.06-.11.17-.12.42-.04.72-.11.88-.22.16-.1.24-.27.24-.49s-.15-.75-.46-1.61l-.44-1.29c-.26,0-1.42.02-3.49.04-.52,1.38-.78,2.26-.78,2.62,0,.31.13.53.39.68.26.15.51.23.76.25.18.01.28.07.28.17,0,.04-.03.08-.09.11-.8-.04-1.28-.05-1.45-.05-.84,0-1.4,0-1.69.03-.16,0-.24-.04-.24-.13,0-.08.07-.13.21-.15.57-.08,1.01-.46,1.32-1.17.3-.71.78-1.97,1.42-3.8.59-1.66,1.24-3.26,1.94-4.78Zm-.3,1.63c-.46.95-1.01,2.33-1.63,4.14.51-.02.88-.04,1.11-.04l2.11.04c-.18-.52-.44-1.21-.78-2.07-.41-1.02-.68-1.71-.81-2.07Z"/>
        <path d="m182.63,190.99c.13-.13.22-.28.27-.42.04-.12.1-.18.17-.18.04,0,.08.02.13.07.04.18.08.54.15,1.09l.18,1.41c0,.09-.06.14-.17.14-.06,0-.11-.05-.16-.15-.27-.65-.66-1.2-1.18-1.63-.52-.43-1.09-.64-1.7-.64s-1.06.18-1.37.55c-.31.37-.46.75-.46,1.16,0,.5.17.88.5,1.15s1.02.56,2.07.9c.77.24,1.35.47,1.73.7.38.22.7.54.96.94.26.41.39.84.39,1.3,0,.79-.33,1.5-.98,2.12-.65.62-1.46.94-2.41.94-.85,0-1.71-.27-2.58-.8-.17.14-.28.3-.33.49-.04.16-.1.24-.19.24-.08,0-.14-.1-.17-.31-.04-.2-.11-1.17-.22-2.91.02-.06.07-.09.16-.09.08,0,.13.06.18.17.77,1.93,1.84,2.9,3.22,2.9.68,0,1.22-.21,1.61-.62.39-.41.58-.89.58-1.42,0-.37-.1-.71-.31-1.02-.21-.31-.48-.56-.82-.75-.34-.19-.88-.4-1.62-.64-.95-.3-1.59-.59-1.94-.87-.34-.27-.59-.58-.75-.92-.16-.34-.24-.67-.24-.99,0-.66.3-1.25.9-1.77s1.34-.77,2.21-.77c.33,0,.68.05,1.04.16.36.1.74.26,1.14.48Z"/>
      </g>
      <g>
        <path class="cls-1" d="m97.86,0c11.76,5.41,15.63,13.01,14.57,20.97-1.74,7.5-9.15,14.18-14.91,18.23-12.12,8.53-29.68,15.93-44.6,11.25-11.67-3.66-9.03-17.01-9.33-15.55-1.13,5.59.17,11.9,4.77,15.72,4.17,3.46,11.25,4.38,16.49,4.36,4.69-.02,9.5-.87,14.11-2-2.88,1.51-5.85,2.88-8.94,4.05-12.34,4.68-22.67,2.7-33.25,5.37-19.38,4.88-26.41,23.19-26.41,23.19,0,0,8.67-18.48,44.04-17.57.27-.02,1.04.07,1.3.06-13.81,9.22-21.54,22.49-8.25,51.71-2.76-42.41,37.55-45.69,59.39-57.63,33.2-18.16,35.53-53.68-8.99-62.16Z"/>
        <path class="cls-1" d="m143.78,92.39c6.05,3.62,10.58,4.54,19.32,4.12l-3.02-1.68c-4.12-1.76-4.87-2.27-8.57-4.95-12.35-9.24-11.09-28.73-12.01-42.6-.6-7.91-1.57-15.25-4.15-21.71-.68-1.7-3.02-5.19-3.02-5.19,3.75,12.72,3.45,19.75-4,35.14-8.15,16.84,7.06,26.04-4.2,27.64-7.73,1.09-5.63,2.44-5.21,6.47.25,2.77-1.51,2.85-4.54,3.19.5,5.13.76,4.45-3.7,5.13-4.7.67-.34,11.59-9.83,9.49-5.96-1.34-9.49-7.14-17.72-6.97-20.33,20.07,12.6,33.27,24.78,62.75,2.02-12.43-13.02-29.99,5.8-41.92-5.46,14.95-6.22,33.1,7.9,43.85-1.09-3.95-3.19-7.73-3.7-12.6-.67-6.72-.17-14.45,1.76-20.75,8.82-29.32-2.86,18.14,28.06,23.35-6.47-6.97-10.19-10.84-9.49-23.18,1.16-20.36.82-22.08-2.77-30.83.87,2.12,8.73,6.64,13.78,15.88,5.79,10.75,2.94,14.53,1.85,25.2,16.3-32.68-7.9-36.71-7.31-49.81h0Z"/>
      </g>
      <path class="cls-2" d="m37.33,40.59s.67-10.98-13.3-11.7c0,0,.44,14.24,13.3,11.7Z"/>
      <path class="cls-2" d="m49.42,49.67s7.7-7.86-2.38-17.55c0,0-9,11.05,2.38,17.55Z"/>
      <path class="cls-2" d="m80.45,49.18s1.74-10.86-12.1-12.94c0,0-.95,14.22,12.1,12.94Z"/>
      <path class="cls-2" d="m64.13,51.09s7.37-8.17-3.12-17.44c0,0-8.53,11.41,3.12,17.44Z"/>
      <path class="cls-2" d="m51.3,50.4s-10.96-.97-12.06,12.98c0,0,14.25-.06,12.06-12.98Z"/>
      <path class="cls-2" d="m65.05,51.09s-10.55,3.12-6.45,16.5c0,0,13.23-5.29,6.45-16.5Z"/>
      <path class="cls-2" d="m80.76,47.91s-10.55,3.12-6.45,16.5c0,0,13.23-5.29,6.45-16.5Z"/>
      <path class="cls-2" d="m105.91,31.87s-11.56,2.45-14.54-12.28c0,0,15.2-1.79,14.54,12.28Z"/>
      <path class="cls-2" d="m105.93,31.54s7.33-9.27,19.02.17c0,0-10.56,11.07-19.02-.17Z"/>
      <path class="cls-2" d="m96.62,38.7s9.01-7.64,18.62,3.91c0,0-12.53,8.78-18.62-3.91Z"/>
      <path class="cls-2" d="m98.37,39.01s-11.26,3.58-15.68-10.79c0,0,14.95-3.27,15.68,10.79Z"/>
      <path class="cls-2" d="m81.59,48.92c-.39,0-.77-.24-.93-.62-.21-.51.04-1.1.55-1.3,2.28-.92,4.55-1.97,6.75-3.12,6.91-3.59,11.56-7.29,13.71-9.18,2.33-2.04,4.26-4.04,5.59-5.8,1.62-2.14,3.03-3.99,3.77-6.68.53-1.9.91-4.96-.27-8.76-.16-.53.13-1.09.66-1.25.53-.17,1.09.13,1.25.66,1.05,3.37,1.15,6.79.29,9.88-.85,3.06-2.43,5.14-4.11,7.35-1.41,1.86-3.44,3.97-5.87,6.1-2.22,1.95-7.01,5.76-14.11,9.45-2.26,1.17-4.58,2.25-6.92,3.2-.12.05-.25.07-.38.07Z"/>
      <path class="cls-2" d="m60.33,52.08c-1.12,0-2.06-.03-2.8-.07-3.23-.16-6.12-.56-8.38-1.15-2.69-.7-5.22-1.35-7.78-3.23-2.59-1.9-4.63-4.64-5.9-7.94-.2-.52.06-1.09.57-1.29.52-.2,1.09.06,1.29.57,1.43,3.71,3.62,5.88,5.21,7.04,2.25,1.65,4.5,2.23,7.1,2.9,2.13.55,4.89.93,7.98,1.09,2.86.14,8.8.17,16.45-1.29,2.44-.47,4.87-1.05,7.23-1.74.53-.15,1.09.15,1.24.68.15.53-.15,1.09-.68,1.24-2.42.7-4.91,1.3-7.41,1.78-5.89,1.12-10.8,1.39-14.13,1.39Z"/>
    </g>
  </g>
</svg>