<?xml version="1.0" encoding="UTF-8"?>
<svg id="Capa_2" data-name="Capa 2" xmlns="http://www.w3.org/2000/svg" viewBox="0 0 292.5 69.26">
  <defs>
    <style>
      .cls-1 {
        fill: #098337;
        fill-rule: evenodd;
      }

      .cls-2 {
        fill: #806535;
      }
    </style>
  </defs>
  <g id="Capa_1-2" data-name="Capa 1">
    <g>
      <g>
        <path d="m79.23,50.97c0,.62-.1.93-.3.93h-2.37c-.2,0-.72-1.4-1.55-4.2-.71-2.37-1.18-4.07-1.41-5.13-.23-1.01-.37-1.58-.4-1.7-.21-.66-.45-1.01-.72-1.05-.08-.01-.31-.02-.69-.02-.87,0-1.3.2-1.3.61,0,1.21.02,3.02.07,5.42.04,2.41.07,4.21.07,5.4,0,.43-.09.65-.26.65-.13,0-.33-.02-.59-.06-.26-.04-.46-.06-.59-.06-.12,0-.31.02-.55.06s-.43.06-.55.06c-.17,0-.26-.15-.26-.45,0-1.44.04-3.62.11-6.52.07-2.9.11-5.07.11-6.52,0-1.52-.04-3.81-.11-6.87-.07-3.06-.11-5.35-.11-6.87,0-.29.09-.44.26-.44.12,0,.31.02.57.06s.45.06.58.06c.12,0,.31-.02.56-.06s.43-.06.56-.06c.16,0,.24.12.24.36,0,1.12-.02,2.8-.06,5.05-.04,2.25-.06,3.94-.06,5.07,0,.51.02.83.05.97.06.24.2.35.42.35,1.33,0,2.31-.47,2.92-1.42.53-.84,1.03-2.39,1.5-4.63.34-1.76.69-3.52,1.03-5.28.05-.22.15-.37.32-.45.11-.05.47-.08,1.09-.08.75,0,1.13.2,1.13.61,0,.24-.16,1.3-.47,3.2-.37,2.21-.85,4.15-1.44,5.84-.39,1.14-.91,2.29-1.55,3.45-.17.28-.25.53-.25.75,0,.24.28,1.41.83,3.53.48,1.83.92,3.29,1.31,4.4.43,1.01,1.04,2.57,1.81,4.67.03.12.05.24.05.37Z"/>
        <path d="m90.39,34.05c0,.05,0,.17-.03.35-.27,3.01-.4,5.61-.4,7.79,0,.13.09,3.08.26,8.85v.28c.02.38-.07.57-.26.57s-.47.04-.85.13c-.38.08-.66.13-.85.13-.13,0-.23-.46-.3-1.38-.07-.92-.13-1.38-.2-1.38-.04,0-.23.26-.56.77-.4.63-.78,1.11-1.13,1.44-.54.53-1.08.79-1.63.79-1.33,0-2.45-1.02-3.37-3.06-.86-1.94-1.3-4.21-1.3-6.8,0-2.92.44-5.33,1.31-7.24.91-1.98,2.11-2.98,3.6-2.98,1.05,0,1.97.7,2.75,2.09.12.26.3.64.55,1.14.02.04.04.06.06.06.04,0,.1-.41.18-1.24.07-.83.17-1.24.29-1.24.18,0,.53.1,1.04.3.56.24.84.45.84.63Zm-2.62,8.24c0-1.62-.25-3-.75-4.16-.53-1.25-1.2-1.87-2.03-1.87s-1.51.62-2.06,1.85c-.53,1.18-.79,2.58-.79,4.18s.26,2.97.79,4.14c.55,1.22,1.24,1.83,2.06,1.83s1.48-.62,2.02-1.87c.51-1.17.76-2.54.76-4.1Z"/>
        <path d="m97.96,33.38c0,1.45-.05,2.76-.15,3.94-.02.3-.09.45-.21.45-.14,0-.36-.03-.65-.09-.29-.06-.51-.09-.66-.09-.86,0-1.42.47-1.66,1.4-.14.57-.22,1.74-.22,3.53v2.17c0,.74.01,1.85.05,3.35.03,1.5.05,2.62.05,3.35,0,.36-.08.53-.24.53-.21,0-.54,0-.97-.02-.43-.01-.76-.02-.97-.02-.16,0-.24-.16-.24-.49,0-1.06,0-2.67.03-4.81.02-2.14.03-3.75.03-4.83,0-3.25-.16-5.86-.47-7.83-.01-.11-.02-.18-.02-.24,0-.16.05-.27.13-.34.25-.05.61-.13,1.07-.24.74-.26,1.08-.4,1.03-.4.11,0,.18.39.22,1.16.03.78.1,1.16.18,1.16.01,0,.03-.01.05-.04.28-.34.56-.68.84-1.03.31-.35.62-.62.95-.79.27-.16.61-.24,1.03-.24.54,0,.8.14.8.41Z"/>
        <path d="m109.1,34.05c0,.05,0,.17-.03.35-.27,3.01-.4,5.61-.4,7.79,0,.13.09,3.08.26,8.85v.28c.02.38-.07.57-.26.57s-.47.04-.85.13c-.38.08-.66.13-.85.13-.13,0-.23-.46-.3-1.38-.07-.92-.13-1.38-.2-1.38-.04,0-.23.26-.56.77-.4.63-.78,1.11-1.13,1.44-.54.53-1.08.79-1.63.79-1.33,0-2.45-1.02-3.37-3.06-.86-1.94-1.3-4.21-1.3-6.8,0-2.92.44-5.33,1.31-7.24.91-1.98,2.11-2.98,3.6-2.98,1.05,0,1.97.7,2.75,2.09.12.26.3.64.55,1.14.02.04.04.06.06.06.04,0,.1-.41.18-1.24.07-.83.17-1.24.29-1.24.18,0,.53.1,1.04.3.56.24.84.45.84.63Zm-2.62,8.24c0-1.62-.25-3-.75-4.16-.53-1.25-1.2-1.87-2.03-1.87s-1.51.62-2.06,1.85c-.53,1.18-.79,2.58-.79,4.18s.26,2.97.79,4.14c.55,1.22,1.24,1.83,2.06,1.83s1.48-.62,2.02-1.87c.51-1.17.76-2.54.76-4.1Z"/>
        <path d="m126.42,51.16c0,.51-.08.77-.24.77-.1,0-.26-.02-.47-.06-.21-.04-.37-.06-.48-.06-.12,0-.29.01-.53.04s-.41.04-.52.04c-.14,0-.22-.31-.22-.93s.01-1.51.04-2.71c.02-1.2.04-2.11.04-2.71,0-3.33,0-5.18-.02-5.56-.06-1.35-.2-2.29-.43-2.8-.27-.55-.74-.83-1.43-.83-.43,0-.92.4-1.46,1.18-.56.83-.85,1.64-.87,2.45-.03,1.02-.04,2.9-.04,5.62,0,.64.01,1.61.04,2.9s.04,2.26.04,2.9c0,.36-.06.53-.19.53s-.3-.02-.54-.06c-.24-.04-.42-.06-.54-.06-.11,0-.27.01-.48.04s-.37.04-.48.04c-.14,0-.21-.19-.21-.57,0-.63,0-1.58.03-2.85.02-1.27.03-2.22.03-2.85v-4.75c0-1.48-.09-2.54-.28-3.17-.26-.89-.76-1.34-1.49-1.34-.43,0-.95.35-1.54,1.05-.66.76-.99,1.53-.99,2.31v5.76c0,.66,0,1.64,0,2.94,0,1.3.01,2.28.01,2.92,0,.38-.08.57-.24.57h-1.91c-.14,0-.21-.18-.21-.53,0-1.06,0-2.66,0-4.8s.01-3.74.01-4.8c0-2.41-.13-4.8-.4-7.2-.02-.17-.03-.31-.03-.41,0-.17.03-.27.09-.3.25-.05.62-.15,1.11-.3.23-.13.57-.28,1.02-.43l.08-.02c.08,0,.16.46.23,1.39s.14,1.39.19,1.39l.51-.87c.41-.67.81-1.2,1.21-1.6.58-.58,1.17-.87,1.75-.87,1.58,0,2.58,1.24,3.02,3.71.43-1.05.95-1.92,1.59-2.6.67-.73,1.34-1.1,2-1.1,1.27,0,2.15.71,2.63,2.13.35,1.05.53,2.71.53,4.99,0,.43,0,1.1-.02,2.01-.01.91-.02,1.58-.02,2.01,0,.83,0,2.07.03,3.74.02,1.66.03,2.91.03,3.74Z"/>
        <path d="m138.47,34.05c0,.05,0,.17-.03.35-.27,3.01-.4,5.61-.4,7.79,0,.13.09,3.08.26,8.85v.28c.02.38-.07.57-.26.57s-.47.04-.85.13c-.38.08-.66.13-.85.13-.13,0-.23-.46-.3-1.38-.07-.92-.13-1.38-.2-1.38-.04,0-.23.26-.56.77-.4.63-.78,1.11-1.13,1.44-.54.53-1.08.79-1.63.79-1.33,0-2.45-1.02-3.37-3.06-.86-1.94-1.3-4.21-1.3-6.8,0-2.92.44-5.33,1.31-7.24.91-1.98,2.11-2.98,3.6-2.98,1.05,0,1.97.7,2.75,2.09.12.26.3.64.55,1.14.02.04.04.06.06.06.04,0,.1-.41.18-1.24.07-.83.17-1.24.29-1.24.18,0,.53.1,1.04.3.56.24.84.45.84.63Zm-2.62,8.24c0-1.62-.25-3-.75-4.16-.53-1.25-1.2-1.87-2.03-1.87s-1.51.62-2.06,1.85c-.53,1.18-.79,2.58-.79,4.18s.26,2.97.79,4.14c.55,1.22,1.24,1.83,2.06,1.83s1.48-.62,2.02-1.87c.51-1.17.76-2.54.76-4.1Z"/>
        <path d="m149.21,33.52c0,1.58,0,3.95-.02,7.11-.01,3.16-.02,5.53-.02,7.11,0,3.13-.35,5.44-1.05,6.92-.73,1.58-1.91,2.37-3.52,2.37s-2.82-.57-3.78-1.7c-.15-.18-.23-.34-.23-.47,0,.15.1-.83.31-2.92.02-.22.07-.34.14-.34.03,0,.08.03.13.1,1.03,1.13,2.06,1.7,3.1,1.7.68,0,1.24-.29,1.69-.87.51-.66.77-1.61.77-2.86,0-.28-.01-.89-.04-1.85-.76,1.77-1.73,2.66-2.9,2.66-1.27,0-2.31-.87-3.13-2.62-.78-1.68-1.17-3.75-1.17-6.21s.38-4.62,1.13-6.37c.8-1.87,1.85-2.8,3.13-2.8,1.13,0,2.03.84,2.7,2.51.11.28.19.41.24.41.06,0,.08-.12.08-.35,0-.17,0-.44-.02-.82s-.02-.65-.02-.84c0-.79.04-1.18.12-1.18.07,0,.44.12,1.11.37.67.24,1.04.39,1.1.44.1.07.14.24.14.51Zm-2.47,8.12c0-1.47-.21-2.72-.63-3.75-.46-1.12-1.06-1.68-1.81-1.68s-1.34.57-1.8,1.7c-.42,1.02-.63,2.27-.63,3.73s.21,2.67.64,3.71c.46,1.13,1.06,1.7,1.79,1.7s1.32-.57,1.79-1.7c.43-1.04.65-2.27.65-3.71Z"/>
        <path d="m160.64,34.01c0,.96-.02,2.41-.06,4.35s-.06,3.39-.06,4.37.02,2.4.05,4.31c.03,1.91.05,3.35.05,4.31,0,.26-.06.43-.2.51-.06.03-.75.04-2.09.04-.08,0-.13-.49-.15-1.48-.02-.99-.06-1.48-.12-1.48-.03,0-.09.06-.15.18-1.15,1.91-2.28,2.86-3.4,2.86-1.52,0-2.52-1.05-3.01-3.16-.3-1.3-.45-3.64-.45-7.02,0-3.05.13-5.63.38-7.75.06-.51.18-.77.34-.77.2,0,.5,0,.9.02s.7.02.9.02c.14,0,.21.15.21.44,0,.51-.04,1.37-.13,2.56-.1,1.28-.15,2.18-.15,2.7-.02.79-.03,1.66-.03,2.6,0,2.3.09,3.85.26,4.63.3,1.42.95,2.13,1.97,2.13.43,0,.94-.41,1.53-1.22.62-.85.95-1.68.97-2.46.03-.99.05-4.46.05-10.41,0-.64.14-.97.42-.97h1.7c.2,0,.3.23.3.69Z"/>
        <path d="m172.74,34.05c0,.05,0,.17-.03.35-.27,3.01-.4,5.61-.4,7.79,0,.13.09,3.08.26,8.85v.28c.02.38-.07.57-.26.57s-.47.04-.85.13c-.38.08-.66.13-.85.13-.13,0-.23-.46-.3-1.38-.07-.92-.13-1.38-.2-1.38-.04,0-.23.26-.56.77-.4.63-.78,1.11-1.13,1.44-.54.53-1.08.79-1.63.79-1.33,0-2.45-1.02-3.37-3.06-.86-1.94-1.3-4.21-1.3-6.8,0-2.92.44-5.33,1.31-7.24.91-1.98,2.11-2.98,3.6-2.98,1.05,0,1.97.7,2.75,2.09.12.26.3.64.55,1.14.02.04.04.06.06.06.04,0,.1-.41.18-1.24.07-.83.17-1.24.29-1.24.18,0,.53.1,1.04.3.56.24.84.45.84.63Zm-2.62,8.24c0-1.62-.25-3-.75-4.16-.53-1.25-1.2-1.87-2.03-1.87s-1.51.62-2.06,1.85c-.53,1.18-.79,2.58-.79,4.18s.26,2.97.79,4.14c.55,1.22,1.24,1.83,2.06,1.83s1.48-.62,2.02-1.87c.51-1.17.76-2.54.76-4.1Z"/>
      </g>
      <g>
        <path d="m191.17,34.44c0,3.09-.44,5.56-1.31,7.41-.9,1.9-2.14,2.86-3.74,2.86-.39,0-.98-.03-1.78-.09s-1.39-.09-1.79-.09c-.22,0-.33.27-.33.81,0,.7.02,1.74.07,3.13.04,1.39.07,2.44.07,3.13,0,.22-.06.34-.2.34-.14,0-.36-.03-.65-.09-.29-.06-.51-.09-.65-.09-.12,0-.3.02-.55.06-.24.04-.42.06-.54.06-.17,0-.26-.2-.26-.61,0-1.43.03-3.6.1-6.49.06-2.89.1-5.06.1-6.51,0-4.1-.08-8.5-.24-13.21v-.3c-.02-.29.07-.43.26-.43.37,0,.93,0,1.67.02s1.31.02,1.68.02c.32,0,.81-.03,1.45-.08s1.13-.08,1.45-.08c1.52,0,2.76.99,3.74,2.96.95,1.93,1.43,4.35,1.43,7.26Zm-2.59.3c0-1.97-.28-3.55-.83-4.73-.58-1.24-1.37-1.85-2.39-1.85-.32,0-.88.05-1.69.16-.93.11-1.4.21-1.43.31-.05.16-.07,2.42-.07,6.78,0,.55,0,1.38.03,2.48s.03,1.93.03,2.48c0,.12.08.21.23.28.38.15,1.42.22,3.14.22.96,0,1.71-.57,2.24-1.71.5-1.09.75-2.56.75-4.42Z"/>
        <path d="m202.65,34.05c0,.05,0,.17-.03.35-.27,3.01-.4,5.61-.4,7.79,0,.13.09,3.08.26,8.85v.28c.02.38-.07.57-.26.57s-.47.04-.85.13c-.38.08-.66.13-.85.13-.13,0-.23-.46-.3-1.38-.07-.92-.13-1.38-.2-1.38-.04,0-.23.26-.56.77-.4.63-.78,1.11-1.13,1.44-.54.53-1.08.79-1.63.79-1.33,0-2.45-1.02-3.37-3.06-.86-1.94-1.3-4.21-1.3-6.8,0-2.92.44-5.33,1.31-7.24.91-1.98,2.11-2.98,3.6-2.98,1.05,0,1.97.7,2.75,2.09.12.26.3.64.55,1.14.02.04.04.06.06.06.04,0,.1-.41.18-1.24.07-.83.17-1.24.29-1.24.18,0,.53.1,1.04.3.56.24.84.45.84.63Zm-2.62,8.24c0-1.62-.25-3-.75-4.16-.53-1.25-1.2-1.87-2.03-1.87s-1.51.62-2.06,1.85c-.53,1.18-.79,2.58-.79,4.18s.26,2.97.79,4.14c.55,1.22,1.24,1.83,2.06,1.83s1.48-.62,2.02-1.87c.51-1.17.76-2.54.76-4.1Z"/>
        <path d="m211.51,34.01c0,.29-.08.93-.24,1.93-.16,1-.27,1.5-.33,1.5-.31-.26-.62-.53-.93-.79-.31-.26-.65-.39-1.02-.39-.84,0-1.55.6-2.11,1.79-.56,1.2-.84,2.61-.84,4.24s.28,2.99.84,4.16c.58,1.21,1.28,1.81,2.11,1.81.46,0,.91-.22,1.36-.65.45-.44.64-.65.59-.65.09,0,.19.55.3,1.66.1,1,.15,1.69.15,2.07,0,.41-.4.81-1.2,1.2-.67.33-1.17.49-1.49.49-1.41,0-2.61-1.01-3.58-3.04-.95-1.97-1.43-4.33-1.43-7.06s.47-5.15,1.4-7.1c.96-2,2.16-3,3.59-3,.96,0,1.84.47,2.64,1.4.14.16.21.3.21.41Z"/>
        <path d="m221.78,51.2c0,.49-.07.73-.22.73-.21,0-.54,0-.97-.02-.43-.01-.75-.02-.97-.02-.17,0-.26-.22-.26-.65,0-.63.01-1.58.04-2.86.02-1.28.04-2.23.04-2.88,0-.6-.01-1.52-.04-2.75-.02-1.23-.04-2.15-.04-2.77,0-2.37-.58-3.55-1.75-3.55-.38,0-.87.36-1.48,1.09-.65.78-.98,1.48-.98,2.13v11.71c0,.38-.07.57-.22.57-.21,0-.53,0-.96-.02-.43-.01-.74-.02-.96-.02-.16,0-.24-.18-.24-.53v-9.52c0-1.55-.05-4.85-.13-9.9-.01-1.56-.07-3.88-.18-6.94-.01-.16-.02-.26-.02-.32,0-.22.04-.36.12-.41.12-.08.5-.12,1.16-.12.14,0,.36-.05.65-.15s.5-.15.63-.15c.09,0,.13.12.13.37,0,1.24-.03,3.09-.08,5.57-.05,2.48-.08,4.33-.08,5.57,0,.3.03.46.08.47.35-.57.8-1.25,1.36-2.05.67-.8,1.38-1.2,2.13-1.2,1.29,0,2.18.74,2.67,2.21.35,1.08.52,2.79.52,5.13,0,.41,0,1.03-.01,1.88-.01.85-.02,1.48-.02,1.88,0,.84,0,2.1.02,3.77s.02,2.92.02,3.75Z"/>
        <path d="m233.76,34.05c0,.05,0,.17-.03.35-.27,3.01-.4,5.61-.4,7.79,0,.13.09,3.08.26,8.85v.28c.02.38-.07.57-.26.57s-.47.04-.85.13c-.38.08-.66.13-.85.13-.13,0-.23-.46-.3-1.38-.07-.92-.13-1.38-.2-1.38-.04,0-.23.26-.56.77-.4.63-.78,1.11-1.13,1.44-.54.53-1.08.79-1.63.79-1.33,0-2.45-1.02-3.37-3.06-.86-1.94-1.3-4.21-1.3-6.8,0-2.92.44-5.33,1.31-7.24.91-1.98,2.11-2.98,3.6-2.98,1.05,0,1.97.7,2.75,2.09.12.26.3.64.55,1.14.02.04.04.06.06.06.04,0,.1-.41.18-1.24.07-.83.17-1.24.29-1.24.18,0,.53.1,1.04.3.56.24.84.45.84.63Zm-2.62,8.24c0-1.62-.25-3-.75-4.16-.53-1.25-1.2-1.87-2.03-1.87s-1.51.62-2.06,1.85c-.53,1.18-.79,2.58-.79,4.18s.26,2.97.79,4.14c.55,1.22,1.24,1.83,2.06,1.83s1.48-.62,2.02-1.87c.51-1.17.76-2.54.76-4.1Z"/>
        <path d="m251.09,51.16c0,.51-.08.77-.24.77-.1,0-.26-.02-.47-.06-.21-.04-.37-.06-.48-.06-.12,0-.29.01-.53.04s-.41.04-.52.04c-.14,0-.22-.31-.22-.93s.01-1.51.04-2.71c.02-1.2.04-2.11.04-2.71,0-3.33,0-5.18-.02-5.56-.06-1.35-.2-2.29-.43-2.8-.27-.55-.74-.83-1.43-.83-.43,0-.92.4-1.46,1.18-.56.83-.85,1.64-.87,2.45-.03,1.02-.04,2.9-.04,5.62,0,.64.01,1.61.04,2.9s.04,2.26.04,2.9c0,.36-.06.53-.19.53s-.3-.02-.54-.06c-.24-.04-.42-.06-.54-.06-.11,0-.27.01-.48.04s-.37.04-.48.04c-.14,0-.21-.19-.21-.57,0-.63,0-1.58.03-2.85.02-1.27.03-2.22.03-2.85v-4.75c0-1.48-.09-2.54-.28-3.17-.26-.89-.76-1.34-1.49-1.34-.43,0-.95.35-1.54,1.05-.66.76-.99,1.53-.99,2.31v5.76c0,.66,0,1.64,0,2.94,0,1.3.01,2.28.01,2.92,0,.38-.08.57-.24.57h-1.91c-.14,0-.21-.18-.21-.53,0-1.06,0-2.66,0-4.8s.01-3.74.01-4.8c0-2.41-.13-4.8-.4-7.2-.02-.17-.03-.31-.03-.41,0-.17.03-.27.09-.3.25-.05.62-.15,1.11-.3.23-.13.57-.28,1.02-.43l.08-.02c.08,0,.16.46.23,1.39s.14,1.39.19,1.39l.51-.87c.41-.67.81-1.2,1.21-1.6.58-.58,1.17-.87,1.75-.87,1.58,0,2.58,1.24,3.02,3.71.43-1.05.95-1.92,1.59-2.6.67-.73,1.34-1.1,2-1.1,1.27,0,2.15.71,2.63,2.13.35,1.05.53,2.71.53,4.99,0,.43,0,1.1-.02,2.01-.01.91-.02,1.58-.02,2.01,0,.83,0,2.07.03,3.74.02,1.66.03,2.91.03,3.74Z"/>
        <path d="m263.13,34.05c0,.05,0,.17-.03.35-.27,3.01-.4,5.61-.4,7.79,0,.13.09,3.08.26,8.85v.28c.02.38-.07.57-.26.57s-.47.04-.85.13c-.38.08-.66.13-.85.13-.13,0-.23-.46-.3-1.38-.07-.92-.13-1.38-.2-1.38-.04,0-.23.26-.56.77-.4.63-.78,1.11-1.13,1.44-.54.53-1.08.79-1.63.79-1.33,0-2.45-1.02-3.37-3.06-.86-1.94-1.3-4.21-1.3-6.8,0-2.92.44-5.33,1.31-7.24.91-1.98,2.11-2.98,3.6-2.98,1.05,0,1.97.7,2.75,2.09.12.26.3.64.55,1.14.02.04.04.06.06.06.04,0,.1-.41.18-1.24.07-.83.17-1.24.29-1.24.18,0,.53.1,1.04.3.56.24.84.45.84.63Zm-2.62,8.24c0-1.62-.25-3-.75-4.16-.53-1.25-1.2-1.87-2.03-1.87s-1.51.62-2.06,1.85c-.53,1.18-.79,2.58-.79,4.18s.26,2.97.79,4.14c.55,1.22,1.24,1.83,2.06,1.83s1.48-.62,2.02-1.87c.51-1.17.76-2.54.76-4.1Z"/>
        <path d="m280.46,51.16c0,.51-.08.77-.24.77-.1,0-.26-.02-.47-.06-.21-.04-.37-.06-.48-.06-.12,0-.29.01-.53.04s-.41.04-.52.04c-.14,0-.22-.31-.22-.93s.01-1.51.04-2.71c.02-1.2.04-2.11.04-2.71,0-3.33,0-5.18-.02-5.56-.06-1.35-.2-2.29-.43-2.8-.27-.55-.74-.83-1.43-.83-.43,0-.92.4-1.46,1.18-.56.83-.85,1.64-.87,2.45-.03,1.02-.04,2.9-.04,5.62,0,.64.01,1.61.04,2.9s.04,2.26.04,2.9c0,.36-.06.53-.19.53s-.3-.02-.54-.06c-.24-.04-.42-.06-.54-.06-.11,0-.27.01-.48.04s-.37.04-.48.04c-.14,0-.21-.19-.21-.57,0-.63,0-1.58.03-2.85.02-1.27.03-2.22.03-2.85v-4.75c0-1.48-.09-2.54-.28-3.17-.26-.89-.76-1.34-1.49-1.34-.43,0-.95.35-1.54,1.05-.66.76-.99,1.53-.99,2.31v5.76c0,.66,0,1.64,0,2.94,0,1.3.01,2.28.01,2.92,0,.38-.08.57-.24.57h-1.91c-.14,0-.21-.18-.21-.53,0-1.06,0-2.66,0-4.8s.01-3.74.01-4.8c0-2.41-.13-4.8-.4-7.2-.02-.17-.03-.31-.03-.41,0-.17.03-.27.09-.3.25-.05.62-.15,1.11-.3.23-.13.57-.28,1.02-.43l.08-.02c.08,0,.16.46.23,1.39s.14,1.39.19,1.39l.51-.87c.41-.67.81-1.2,1.21-1.6.58-.58,1.17-.87,1.75-.87,1.58,0,2.58,1.24,3.02,3.71.43-1.05.95-1.92,1.59-2.6.67-.73,1.34-1.1,2-1.1,1.27,0,2.15.71,2.63,2.13.35,1.05.53,2.71.53,4.99,0,.43,0,1.1-.02,2.01-.01.91-.02,1.58-.02,2.01,0,.83,0,2.07.03,3.74.02,1.66.03,2.91.03,3.74Z"/>
        <path d="m292.5,34.05c0,.05,0,.17-.03.35-.27,3.01-.4,5.61-.4,7.79,0,.13.09,3.08.26,8.85v.28c.02.38-.07.57-.26.57s-.47.04-.85.13c-.38.08-.66.13-.85.13-.13,0-.23-.46-.3-1.38-.07-.92-.13-1.38-.2-1.38-.04,0-.23.26-.56.77-.4.63-.78,1.11-1.13,1.44-.54.53-1.08.79-1.63.79-1.33,0-2.45-1.02-3.37-3.06-.86-1.94-1.3-4.21-1.3-6.8,0-2.92.44-5.33,1.31-7.24.91-1.98,2.11-2.98,3.6-2.98,1.05,0,1.97.7,2.75,2.09.12.26.3.64.55,1.14.02.04.04.06.06.06.04,0,.1-.41.18-1.24.07-.83.17-1.24.29-1.24.18,0,.53.1,1.04.3.56.24.84.45.84.63Zm-2.62,8.24c0-1.62-.25-3-.75-4.16-.53-1.25-1.2-1.87-2.03-1.87s-1.51.62-2.06,1.85c-.53,1.18-.79,2.58-.79,4.18s.26,2.97.79,4.14c.55,1.22,1.24,1.83,2.06,1.83s1.48-.62,2.02-1.87c.51-1.17.76-2.54.76-4.1Z"/>
      </g>
      <g>
        <path class="cls-1" d="m36.69,0c4.93,2.27,6.56,5.46,6.11,8.79-.73,3.15-3.84,5.95-6.25,7.65-5.08,3.58-12.45,6.68-18.71,4.72-4.89-1.54-3.79-7.13-3.91-6.52-.47,2.35.07,4.99,2,6.59,1.75,1.45,4.72,1.84,6.91,1.83,1.97,0,3.98-.36,5.92-.84-1.21.63-2.45,1.21-3.75,1.7-5.18,1.96-9.51,1.13-13.94,2.25C2.95,28.22,0,35.9,0,35.9c0,0,3.63-7.75,18.47-7.37.11,0,.43.03.55.02-5.79,3.87-9.03,9.43-3.46,21.69-1.16-17.79,15.75-19.16,24.91-24.17,13.92-7.62,14.9-22.51-3.77-26.07Z"/>
        <path class="cls-1" d="m55.95,38.75c2.54,1.52,4.44,1.9,8.1,1.73l-1.27-.7c-1.73-.74-2.04-.95-3.59-2.08-5.18-3.88-4.65-12.05-5.04-17.86-.25-3.32-.66-6.4-1.74-9.11-.29-.71-1.27-2.18-1.27-2.18,1.57,5.34,1.45,8.28-1.68,14.74-3.42,7.06,2.96,10.92-1.76,11.59-3.24.46-2.36,1.02-2.18,2.71.11,1.16-.63,1.2-1.9,1.34.21,2.15.32,1.87-1.55,2.15-1.97.28-.14,4.86-4.12,3.98-2.5-.56-3.98-3-7.43-2.92-8.52,8.42,5.28,13.95,10.39,26.32.85-5.21-5.46-12.58,2.43-17.58-2.29,6.27-2.61,13.88,3.31,18.39-.46-1.66-1.34-3.24-1.55-5.29-.28-2.82-.07-6.06.74-8.7,3.7-12.3-1.2,7.61,11.77,9.79-2.71-2.92-4.28-4.55-3.98-9.72.49-8.54.34-9.26-1.16-12.93.37.89,3.66,2.78,5.78,6.66,2.43,4.51,1.23,6.09.78,10.57,6.83-13.7-3.31-15.4-3.07-20.89h0Z"/>
      </g>
      <path class="cls-2" d="m11.31,17.02s.28-4.61-5.58-4.91c0,0,.19,5.97,5.58,4.91Z"/>
      <path class="cls-2" d="m16.38,20.83s3.23-3.3-1-7.36c0,0-3.77,4.63,1,7.36Z"/>
      <path class="cls-2" d="m29.39,20.63s.73-4.56-5.07-5.43c0,0-.4,5.96,5.07,5.43Z"/>
      <path class="cls-2" d="m22.54,21.43s3.09-3.43-1.31-7.31c0,0-3.58,4.79,1.31,7.31Z"/>
      <path class="cls-2" d="m17.16,21.14s-4.6-.41-5.06,5.44c0,0,5.98-.02,5.06-5.44Z"/>
      <path class="cls-2" d="m22.93,21.43s-4.42,1.31-2.71,6.92c0,0,5.55-2.22,2.71-6.92Z"/>
      <path class="cls-2" d="m29.52,20.1s-4.42,1.31-2.71,6.92c0,0,5.55-2.22,2.71-6.92Z"/>
      <path class="cls-2" d="m40.07,13.37s-4.85,1.03-6.1-5.15c0,0,6.37-.75,6.1,5.15Z"/>
      <path class="cls-2" d="m40.08,13.23s3.07-3.89,7.98.07c0,0-4.43,4.64-7.98-.07Z"/>
      <path class="cls-2" d="m36.17,16.23s3.78-3.2,7.81,1.64c0,0-5.26,3.68-7.81-1.64Z"/>
      <path class="cls-2" d="m36.91,16.36s-4.72,1.5-6.57-4.52c0,0,6.27-1.37,6.57,4.52Z"/>
      <path class="cls-2" d="m29.87,20.51c-.17,0-.32-.1-.39-.26-.09-.21.02-.46.23-.55.96-.39,1.91-.83,2.83-1.31,2.9-1.51,4.85-3.06,5.75-3.85.98-.85,1.79-1.7,2.35-2.43.68-.9,1.27-1.67,1.58-2.8.22-.8.38-2.08-.11-3.67-.07-.22.05-.46.28-.53.22-.07.46.06.53.28.44,1.41.48,2.85.12,4.15-.36,1.28-1.02,2.16-1.72,3.08-.59.78-1.44,1.67-2.46,2.56-.93.82-2.94,2.42-5.92,3.96-.95.49-1.92.94-2.9,1.34-.05.02-.11.03-.16.03Z"/>
      <path class="cls-2" d="m20.95,21.84c-.47,0-.86-.01-1.17-.03-1.35-.07-2.57-.24-3.52-.48-1.13-.29-2.19-.57-3.26-1.35-1.09-.8-1.94-1.95-2.47-3.33-.08-.22.02-.46.24-.54.22-.08.46.02.54.24.6,1.56,1.52,2.47,2.19,2.95.94.69,1.89.94,2.98,1.22.89.23,2.05.39,3.35.46,1.2.06,3.69.07,6.9-.54,1.02-.2,2.04-.44,3.03-.73.22-.06.46.06.52.29.06.22-.06.46-.29.52-1.01.29-2.06.55-3.11.75-2.47.47-4.53.58-5.93.58Z"/>
    </g>
  </g>
</svg>