<?xml version="1.0" encoding="utf-8"?>
<!-- Generator: Adobe Illustrator 27.1.0, SVG Export Plug-In . SVG Version: 6.00 Build 0)  -->
<svg version="1.1" id="Layer_1" xmlns="http://www.w3.org/2000/svg" xmlns:xlink="http://www.w3.org/1999/xlink" x="0px" y="0px"
	 viewBox="0 0 5657 4000" style="enable-background:new 0 0 5657 4000;" xml:space="preserve">
<style type="text/css">
	.st0{display:none;fill-rule:evenodd;clip-rule:evenodd;fill:#FFFFFF;}
	.st1{display:none;fill-rule:evenodd;clip-rule:evenodd;fill:#1C2A39;}
	.st2{fill:#283519;}
	.st3{fill-rule:evenodd;clip-rule:evenodd;fill:#A4BA3B;}
	.st4{fill-rule:evenodd;clip-rule:evenodd;fill:#D8F254;}
	.st5{fill-rule:evenodd;clip-rule:evenodd;fill:#768529;}
	.st6{fill-rule:evenodd;clip-rule:evenodd;fill:#A1BA3A;}
	.st7{font-family:'MyriadPro-Regular';}
	.st8{font-size:12px;}
</style>
<rect x="4" class="st0" width="5657" height="4000"/>
<path class="st1" d="M3500.65,3131.79v-63.67h47.13v10.76h-34.23v14.13h31.83v10.76h-31.83v17.26h35.48v10.76H3500.65z
	 M3392.38,3131.79v-63.67h12.48l26.2,42.67v-42.67h11.91v63.67h-12.88l-25.8-41.85v41.85H3392.38z M3323.18,3131.79v-63.67h12.9
	v63.67H3323.18z M3225.61,3131.79v-63.14h12.89v52.38h31.92v10.76H3225.61z M3141.64,3108.41v-10.76h27.66v25.4
	c-2.69,2.63-6.58,4.92-11.7,6.92c-5.1,1.99-10.27,2.98-15.51,2.98c-6.65,0-12.46-1.39-17.4-4.19c-4.94-2.81-8.66-6.82-11.15-12.03
	c-2.49-5.19-3.73-10.87-3.73-16.99c0-6.64,1.39-12.54,4.16-17.71c2.79-5.16,6.85-9.13,12.2-11.88c4.09-2.12,9.16-3.18,15.24-3.18
	c7.89,0,14.08,1.67,18.53,4.99c4.43,3.33,7.29,7.92,8.56,13.78l-12.8,2.41c-0.89-3.13-2.58-5.6-5.05-7.42
	c-2.47-1.82-5.55-2.72-9.26-2.72c-5.6,0-10.06,1.78-13.36,5.35c-3.3,3.57-4.96,8.86-4.96,15.87c0,7.57,1.67,13.25,5.02,17.03
	c3.36,3.78,7.75,5.67,13.19,5.67c2.68,0,5.38-0.54,8.08-1.58c2.71-1.05,5.02-2.34,6.97-3.86v-8.08H3141.64z M3037.55,3106.54
	l-8.85-23.57l-8.6,23.57H3037.55z M3061.11,3131.79h-13.89l-5.5-14.5h-25.54l-5.29,14.5h-13.64l24.72-63.67h13.62L3061.11,3131.79z
	 M2926.3,3131.79v-52.91h-18.85v-10.76h50.51v10.76h-18.77v52.91H2926.3z M2783.91,3131.79v-63.67h47.13v10.76h-34.24v14.13h31.84
	v10.76h-31.84v17.26h35.48v10.76H2783.91z M2665.6,3131.79v-63.67h19.32l11.41,43.43l11.28-43.43h19.36v63.67h-11.92l-0.04-50.12
	l-12.55,50.12h-12.39l-12.49-50.12l-0.05,50.12H2665.6z M2563.14,3099.92c0,7.22,1.67,12.69,5,16.42c3.33,3.72,7.57,5.59,12.71,5.59
	c5.13,0,9.35-1.86,12.65-5.54c3.29-3.7,4.93-9.24,4.93-16.65c0-7.3-1.6-12.76-4.81-16.35c-3.2-3.6-7.46-5.4-12.77-5.4
	c-5.31,0-9.59,1.82-12.84,5.45C2564.77,3087.09,2563.14,3092.57,2563.14,3099.92z M2549.89,3100.35c0-6.49,0.98-11.95,2.92-16.37
	c1.44-3.24,3.43-6.16,5.93-8.74c2.5-2.58,5.24-4.49,8.23-5.75c3.97-1.68,8.55-2.53,13.73-2.53c9.4,0,16.89,2.93,22.54,8.75
	c5.63,5.84,8.45,13.95,8.45,24.34c0,10.3-2.79,18.36-8.39,24.17c-5.58,5.82-13.07,8.73-22.43,8.73c-9.47,0-17.02-2.89-22.6-8.69
	C2552.69,3118.48,2549.89,3110.51,2549.89,3100.35z M2445.81,3111.17l12.54-1.25c0.75,4.2,2.26,7.26,4.57,9.24
	c2.29,1.97,5.4,2.95,9.29,2.95c4.12,0,7.23-0.88,9.32-2.63c2.09-1.75,3.14-3.79,3.14-6.14c0-1.51-0.44-2.78-1.32-3.85
	c-0.87-1.05-2.42-1.97-4.6-2.74c-1.5-0.53-4.91-1.45-10.24-2.79c-6.87-1.71-11.69-3.82-14.45-6.33c-3.9-3.51-5.84-7.8-5.84-12.85
	c0-3.25,0.91-6.3,2.74-9.13c1.84-2.83,4.48-4.98,7.93-6.46c3.45-1.48,7.6-2.23,12.49-2.23c7.96,0,13.96,1.77,17.97,5.32
	c4.04,3.54,6.14,8.25,6.35,14.16l-12.9,0.44c-0.55-3.28-1.71-5.64-3.51-7.08c-1.79-1.44-4.49-2.16-8.08-2.16
	c-3.7,0-6.61,0.78-8.7,2.32c-1.35,0.99-2.03,2.31-2.03,3.96c0,1.51,0.64,2.81,1.91,3.87c1.62,1.38,5.55,2.8,11.79,4.29
	c6.24,1.47,10.85,3.01,13.83,4.58c3,1.58,5.34,3.73,7.02,6.47c1.69,2.75,2.54,6.12,2.54,10.14c0,3.65-1.01,7.07-3.04,10.26
	c-2.03,3.19-4.9,5.56-8.6,7.1c-3.7,1.56-8.33,2.32-13.86,2.32c-8.05,0-14.23-1.85-18.54-5.57
	C2449.22,3123.67,2446.65,3118.26,2445.81,3111.17z M2345.82,3131.79v-63.67h47.13v10.76h-34.24v14.13h31.84v10.76h-31.84v17.26
	h35.48v10.76H2345.82z M2226.58,3131.79l-14.97-63.67h13.26l9.47,43.73l11.62-43.73h15.32l11.11,44.48l9.7-44.48h12.93l-15.34,63.67
	h-13.77l-12.54-47.6l-12.65,47.6H2226.58z M2148.26,3106.54l-8.85-23.57l-8.6,23.57H2148.26z M2171.82,3131.79h-13.89l-5.5-14.5
	h-25.54l-5.29,14.5h-13.64l24.72-63.67h13.62L2171.82,3131.79z"/>
<path class="st1" d="M4021.13,2880.28v-82.27c0-20.26,12.78-38.01,33.34-38.01c20.57,0,28.98,17.13,28.98,37.39v82.9h38.01v-82.9
	c0-46.12-21.5-72.91-65.12-72.91c-19.95,0-37.71,6.23-51.42,28.05c-8.73-21.19-27.11-28.67-45.5-28.67
	c-14.65,0-32.4,5.61-40.51,21.19l-2.81-18.7h-35.21v153.94h38.02v-82.27c0-20.26,12.16-38.64,32.72-38.64
	c20.88,0,31.47,18.38,31.47,38.64v82.27H4021.13z M3639.98,2726.65v80.72c0,47.67,26.8,75.41,63.57,75.41
	c21.5,0,36.15-7.48,52.04-23.06l2.49,20.57h33.97v-153.63h-37.71v78.38c0,23.52-15.89,43.16-39.26,43.16
	c-24.31,0-37.08-17.76-37.08-41.13v-80.4H3639.98z M3552.36,2742.55c-17.76-15.58-35.83-20.26-59.83-20.26
	c-28.05,0-64.82,12.46-64.82,47.98c0,34.9,34.59,45.5,63.57,47.68c21.82,1.25,30.54,5.61,30.54,16.21
	c0,11.21-13.4,18.69-27.73,18.38c-17.14-0.31-42.07-9.35-52.98-21.5l-18.7,27.11c22.44,23.37,46.74,27.41,71.05,27.41
	c43.94,0,66.06-23.37,66.06-50.48c0-40.82-36.77-47.37-65.75-49.23c-19.63-1.25-28.67-6.86-28.67-16.83
	c0-9.66,9.97-15.27,28.05-15.27c14.65,0,27.11,3.43,38.02,13.71L3552.36,2742.55z M3218.88,2944.47v-82.27
	c10.91,16.82,34.9,21.82,51.1,21.82c49.23,0,77.59-35.53,77.59-80.4c0-45.19-31.48-80.4-78.84-80.4c-17.44,0-38.01,7.48-49.86,24.62
	l-2.49-21.19h-35.53v217.82H3218.88z M3265.93,2847.25c-25.86,0-43.62-19.63-43.62-43.63c0-23.99,16.2-43.62,43.62-43.62
	c27.42,0,43.63,19.63,43.63,43.62C3309.55,2827.62,3291.8,2847.25,3265.93,2847.25z M3089.82,2880.28v-218.45H3049v218.45H3089.82z
	 M2788.75,2880.28v-82.27c0-20.26,12.77-38.01,33.34-38.01s28.98,17.13,28.98,37.39v82.9h38.01v-82.9
	c0-46.12-21.5-72.91-65.12-72.91c-19.95,0-37.7,6.23-51.42,28.05c-8.73-21.19-27.11-28.67-45.5-28.67
	c-14.65,0-32.4,5.61-40.51,21.19l-2.8-18.7h-35.21v153.94h38.02v-82.27c0-20.26,12.16-38.64,32.72-38.64
	c20.88,0,31.47,18.38,31.47,38.64v82.27H2788.75z M2447.8,2785.55c5.61-19.94,22.44-29.91,43-29.91c21.81,0,37.4,9.97,39.89,29.91
	H2447.8z M2567.14,2817.02c5.93-63.26-26.17-95.04-77.59-95.04c-49.86,0-81.64,33.66-81.64,80.4c0,49.23,31.47,81.96,84.45,81.96
	c23.38,0,49.86-8.11,66.07-24.93l-24.31-23.99c-8.72,9.04-27.11,14.33-41.13,14.33c-26.8,0-43.31-13.71-45.8-32.72H2567.14z
	 M2224.32,2726.65v153.63h38.02v-81.02c0-28.36,18.39-38.96,38.33-38.96c12.46,0,19.63,3.43,27.42,9.97l17.14-33.03
	c-8.42-8.41-23.68-14.64-39.58-14.64c-15.58,0-31.47,2.8-43.31,21.81l-2.8-17.76H2224.32z M2062.85,2758.13
	c25.55,0,41.76,22.43,41.76,45.5c0,23.37-14.02,45.18-41.76,45.18c-27.73,0-41.76-21.81-41.76-45.18
	C2021.09,2780.56,2035.43,2758.13,2062.85,2758.13z M2062.54,2723.54c-48.93,0-79.47,36.15-79.47,80.09
	c0,44.25,29.92,80.08,79.78,80.08c49.86,0,80.08-35.83,80.08-80.08C2142.93,2759.69,2111.46,2723.54,2062.54,2723.54z
	 M1755.54,2661.83v218.45h153.31v-38.02h-112.18v-180.43H1755.54z"/>
<path class="st2" d="M2851.5,1278.89c-145.8,2.41-277.58,62.48-373.5,158.4c-97.92,97.92-158.49,233.21-158.49,382.63
	c0,149.43,60.57,284.72,158.49,382.64c95.92,95.92,227.7,155.99,373.5,158.4c145.81-2.41,277.58-62.48,373.5-158.4
	c97.92-97.92,158.49-233.21,158.49-382.64c0-149.42-60.57-284.71-158.49-382.63C3129.08,1341.37,2997.31,1281.3,2851.5,1278.89
	 M2851.5,2419.7c-710.22-8.77-769.62-1030.13-85.56-1151.85c60.62-10.78,97.87-11.81,158.47-2.13
	C3621.83,1377.02,3566.07,2410.87,2851.5,2419.7z"/>
<path class="st3" d="M2681.25,1601.39c-3.92-77.14-44.52-143.71-104.07-183.68c45.13,69.74-201.28,251.67,6.16,369.9
	c-20.49-62.59-20.03-105.74-20.03-105.74c3.12-24.95,14.01-58.8,20.59-78.08c7.76-22.76,14.71-43.12,12.16-64.91
	c14.47,48.08-52.53,125.16,7.84,249.25C2654.57,1742.31,2684.98,1674.93,2681.25,1601.39"/>
<path class="st3" d="M2976.37,1403.64c37.91-67.29,103.95-108.76,175.06-117.98c-71.5,42.28,67.9,315.03-170.5,328.32
	c64.11-48.56,66.17-96.9,66.17-96.9c8.33-23.73,12.62-47.67,15.32-67.86c3.2-23.84,6.07-45.16,18.07-63.53
	c-34.39,36.57-8.81,135.45-118.19,219.59C2937.39,1541.67,2940.22,1467.79,2976.37,1403.64"/>
<path class="st2" d="M2834.67,2404.82c68.75-136.56,32.74-274.83-5.35-421.1c-19.79-76.01-107.61-410.91,75.81-585.45
	c-231.14,393.67,177.1,689.94,12.17,1017.58L2834.67,2404.82z"/>
<path class="st2" d="M2799.27,1718.11c0.64-0.26,222.49-88.09,247.84-201.03c-0.84,109.87-191.81,216.52-234.74,233.72
	L2799.27,1718.11z"/>
<path class="st2" d="M2869.23,2052.45c-131.71-39.97-323.89-185.26-305.92-370.58c52.7,258.74,315.38,336.7,316.13,336.93
	L2869.23,2052.45z"/>
<path class="st4" d="M2536.69,1548.62c11.73-21.64,49.15-81.68,92.16-57.56c13.77,7.72,28.1,24.06,42.35,53.02
	c-9-29.34-23.54-56.14-42.35-79.25c-14.79-18.18-32.21-34.07-51.66-47.13C2595.76,1446.41,2564.92,1494.15,2536.69,1548.62"/>
<path class="st5" d="M2664.97,1700.29c-74.69,101.43-80.81-72.61-80.81-72.61c-8.48,42.05-12.29,94.64,19.73,160.44
	C2630.51,1764.06,2651.55,1734.03,2664.97,1700.29"/>
<path class="st5" d="M3029.69,1527.44c-114.2,23.89-47.81-133.09-47.81-133.09c-1.9,3.04-3.74,6.13-5.51,9.28
	c-36.15,64.16-38.98,138.03-14.05,201.64C2995.21,1579.97,3015.9,1553.32,3029.69,1527.44"/>
<path class="st4" d="M3009.64,1358.19c0,0,116.16-50.79,119.29,99.3c1.48-33.68-1.01-67.93-0.87-97.21
	c0.05-9.19,0.35-17.9,1.12-25.94c2.17-22.77,8.05-40.28,22.26-48.68c-26.17,3.39-51.64,11.16-75.29,22.96
	c-7.77,3.88-15.33,8.19-22.65,12.93C3037.62,1331.8,3022.86,1344.06,3009.64,1358.19"/>
<path class="st6" d="M3342.44,1612.8c109.49,565.19-425.82,413.18-425.82,413.18c33.88,109.29,58.19,216.23,26.08,325.79
	c109.2-20.47,206.85-73.74,282.31-149.2c97.92-97.92,158.49-233.21,158.49-382.64C3383.49,1746.56,3368.89,1676.6,3342.44,1612.8"/>
<path class="st6" d="M2866.99,2152.55c-662.44-14.99-449.13-643.77-449.13-643.77c-61.95,88.01-98.35,195.33-98.35,311.15
	c0,149.43,60.57,284.72,158.49,382.64c95.92,95.92,227.7,155.99,373.5,158.4c0.59-0.01,1.18-0.02,1.76-0.04
	C2877.06,2292.33,2877.33,2223.13,2866.99,2152.55"/>
<text transform="matrix(1 0 0 1 3491.2822 2817.9551)" class="st7 st8">v</text>
</svg>
